<svg width="40" height="40" viewBox="0 0 40 40" fill="none" xmlns="http://www.w3.org/2000/svg">
<circle cx="20" cy="20" r="20" fill="#E2E8F0"/>
<path d="M18.7727 20H17.3636C17.2803 19.5947 17.1345 19.2386 16.9261 18.9318C16.7216 18.625 16.4716 18.3674 16.1761 18.1591C15.8845 17.947 15.5606 17.7879 15.2045 17.6818C14.8485 17.5758 14.4773 17.5227 14.0909 17.5227C13.3864 17.5227 12.7481 17.7008 12.1761 18.0568C11.608 18.4129 11.1553 18.9375 10.8182 19.6307C10.4848 20.3239 10.3182 21.1742 10.3182 22.1818C10.3182 23.1894 10.4848 24.0398 10.8182 24.733C11.1553 25.4261 11.608 25.9508 12.1761 26.3068C12.7481 26.6629 13.3864 26.8409 14.0909 26.8409C14.4773 26.8409 14.8485 26.7879 15.2045 26.6818C15.5606 26.5758 15.8845 26.4186 16.1761 26.2102C16.4716 25.9981 16.7216 25.7386 16.9261 25.4318C17.1345 25.1212 17.2803 24.7652 17.3636 24.3636H18.7727C18.6667 24.9583 18.4735 25.4905 18.1932 25.9602C17.9129 26.4299 17.5644 26.8295 17.1477 27.1591C16.7311 27.4848 16.2633 27.733 15.7443 27.9034C15.2292 28.0739 14.678 28.1591 14.0909 28.1591C13.0985 28.1591 12.2159 27.9167 11.4432 27.4318C10.6705 26.947 10.0625 26.2576 9.61932 25.3636C9.17614 24.4697 8.95455 23.4091 8.95455 22.1818C8.95455 20.9545 9.17614 19.8939 9.61932 19C10.0625 18.1061 10.6705 17.4167 11.4432 16.9318C12.2159 16.447 13.0985 16.2045 14.0909 16.2045C14.678 16.2045 15.2292 16.2898 15.7443 16.4602C16.2633 16.6307 16.7311 16.8807 17.1477 17.2102C17.5644 17.536 17.9129 17.9337 18.1932 18.4034C18.4735 18.8693 18.6667 19.4015 18.7727 20ZM30.277 16.3636V28H28.9134L22.5724 18.8636H22.4588V28H21.0497V16.3636H22.4134L28.777 25.5227H28.8906V16.3636H30.277Z" fill="#0F172A"/>
</svg>
