<svg width="72" height="20" viewBox="0 0 72 20" fill="none" xmlns="http://www.w3.org/2000/svg">
<path fill-rule="evenodd" clip-rule="evenodd" d="M20.0001 4.00002V0H16V4.00002V7.99993V12V16H12H7.99995H4.00003V12V7.99993V4.00002V0H0V4.00002V7.99993V12V16V20H4.00003H7.99995H12H16H20.0001H24V16H20.0001V12V7.99993V4.00002Z" fill="#1E293B"/>
<path fill-rule="evenodd" clip-rule="evenodd" d="M28 0V4.00002V7.99993V12V16V20H32V16V12V7.99993V4.00002H36H40H44V7.99993V12V16V20H47.9999V16V12V7.99993V4.00002V0H44H40H36H32H28Z" fill="#1E293B"/>
<path fill-rule="evenodd" clip-rule="evenodd" d="M52 0V4.00002H56H60.0001V7.99993V12V16V20H64V16V12V7.99993V4.00002H68H72.0001V0H68H64H60.0001H56H52Z" fill="#1E293B"/>
</svg>
