<svg width="1760" height="1220" viewBox="0 0 1760 1220" fill="none" xmlns="http://www.w3.org/2000/svg">
<path d="M-690.485 107.074C-769.758 94.9486 -824.91 82.255 -869.311 65.9137C-1037.58 1.61649 -1110.01 -163.767 -1053.82 -355.421C-1024.43 -451.096 -962.596 -535.578 -875.02 -599.727C-797.76 -655.487 -687.952 -703.821 -529.448 -751.833C-420.147 -784.462 -298.969 -809.071 -148.095 -829.279C4.7692 -849.395 120.889 -852.195 228.406 -838.354C233.281 -837.698 238.136 -837.002 243.25 -836.22C364.381 -817.692 545.917 -764.396 728.855 -693.65C914.791 -621.747 1066.47 -545.093 1134.6 -488.599C1337.13 -375.779 1273.14 -305.489 1176.29 -199.088C1133.32 -151.893 1084.63 -98.3978 1047.55 -30.4303C1020.81 18.6219 998.166 62.611 978.184 101.426C882.243 287.817 838.465 372.889 634.199 443.009C584.965 459.004 527.194 462.099 462.524 452.207C411.548 444.41 355.836 428.488 296.933 404.88C243.56 383.329 189.677 358.373 132.631 331.95C57.603 297.197 -19.9742 261.26 -107.258 227.877C-211.276 188.449 -331.067 158.694 -473.485 136.911C-494.624 133.677 -516.897 130.524 -539.681 127.535C-549.922 126.195 -560.085 124.877 -570.153 123.568C-612.417 118.087 -652.337 112.909 -690.485 107.074ZM243.723 -837.272C238.585 -838.058 233.701 -838.761 228.792 -839.424C120.87 -853.317 4.41 -850.516 -148.838 -830.35C-299.903 -810.117 -421.244 -785.472 -530.714 -752.798C-689.462 -704.709 -799.457 -656.288 -876.884 -600.409C-964.636 -536.129 -1026.57 -451.502 -1056.01 -355.676C-1112.32 -163.612 -1039.52 2.21005 -870.54 66.7773C-825.89 83.2128 -770.506 95.9637 -690.96 108.131C-652.763 113.973 -612.822 119.155 -570.53 124.64C-560.46 125.944 -550.305 127.261 -540.065 128.604C-517.311 131.59 -495.07 134.739 -473.96 137.968C-331.819 159.709 -212.278 189.398 -108.489 228.736C-21.3195 262.082 56.2119 297.994 131.204 332.73C188.277 359.17 242.185 384.139 295.634 405.716C354.792 429.426 410.779 445.422 462.049 453.264C527.376 463.256 585.74 460.121 635.539 443.945C734.866 409.849 798.522 371.95 848.389 317.206C896.815 264.056 931.848 195.992 980.339 101.789C1000.32 62.9792 1022.96 18.9889 1049.7 -30.0546C1086.73 -97.9387 1135.39 -151.398 1178.32 -198.56C1228.31 -253.477 1267.81 -296.856 1270.45 -341.853C1273.32 -390.502 1231.95 -435.945 1136.33 -489.205C1068.2 -545.727 916.284 -622.51 730.116 -694.507C546.948 -765.334 365.119 -818.704 243.723 -837.272Z" fill="#EDE9F6"/>
<path d="M236.86 -825.061C239.745 -824.651 242.598 -824.227 245.531 -823.778C361.265 -806.072 535.993 -754.436 712.898 -685.645C892.943 -615.646 1040.37 -540.887 1107.28 -485.663C1303.85 -375.773 1244.18 -306.784 1153.86 -202.357C1114.81 -157.199 1070.54 -106.015 1036.88 -41.5761C1012.1 5.36033 991.095 47.5709 972.563 84.8106C882.67 265.464 841.64 347.916 645.626 416.615C594.189 434.265 532.783 437.812 463.087 427.149C416.348 419.998 365.605 406.4 312.273 386.73C245.746 364.149 178.105 336.382 106.499 306.984C39.2167 279.36 -30.3685 250.794 -106.03 223.573C-263.363 167.726 -426.287 138.445 -535.149 121.278L-554.443 118.463C-577.863 115.043 -599.988 111.813 -621.938 108.455C-715.306 94.1706 -789.978 79.7569 -850.926 55.8356C-1011.77 -7.88123 -1083.27 -168.373 -1033.07 -353.03C-1008.39 -447.672 -951.898 -530.91 -869.704 -593.743C-796.25 -649.363 -690.18 -697.387 -535.895 -744.869C-423.369 -779.691 -298.327 -804.694 -142.38 -823.544C9.36198 -841.507 125.954 -842.031 235.658 -825.245L236.86 -825.061ZM246.007 -824.838C243.061 -825.288 240.192 -825.715 237.312 -826.117L236.133 -826.302C126.021 -843.148 9.06574 -842.63 -143.077 -824.62C-299.236 -805.743 -424.467 -780.706 -537.175 -745.829C-691.704 -698.267 -797.972 -650.153 -871.592 -594.407C-953.951 -531.448 -1010.55 -448.065 -1035.27 -353.271C-1085.58 -168.217 -1013.72 -7.30075 -852.2 56.6851C-790.947 80.7212 -716.043 95.1899 -622.414 109.514C-600.448 112.875 -578.317 116.103 -554.885 119.525L-535.621 122.338C-426.938 139.477 -264.254 168.712 -107.213 224.451C-31.6244 251.651 37.9282 280.202 105.19 307.814C176.836 337.23 244.517 365.015 311.089 387.611C364.616 407.351 415.605 421.012 462.613 428.204C532.969 438.968 595.01 435.384 646.984 417.539C843.617 348.632 884.702 266.067 974.72 85.165C993.252 47.9275 1014.25 5.72382 1039.03 -41.2132C1072.65 -105.576 1116.89 -156.723 1155.91 -201.843C1202.53 -255.744 1239.35 -298.316 1240.86 -342.38C1242.48 -390.013 1201.81 -434.392 1109.02 -486.267C1042.09 -541.52 894.423 -616.411 714.168 -686.495C537.029 -755.375 362.01 -807.09 246.007 -824.838Z" fill="#EDE9F6"/>
<path d="M462.979 401.946C420.876 395.503 375.531 384.169 328.213 368.27C245.329 345.046 160.369 314.039 70.4203 281.21C14.2803 260.722 -43.7679 239.536 -104.921 218.899C-256.052 168.807 -405.34 138.054 -531.447 114.575L-538.898 113.357C-655.189 94.3672 -755.626 77.9647 -833.891 45.2428C-987.635 -17.9182 -1058.46 -173.452 -1014.33 -351.011C-994.167 -445.905 -944.398 -525.617 -866.387 -587.945C-797.698 -642.603 -692.244 -691.648 -544.012 -737.894C-429.741 -774.367 -296.893 -800.445 -137.865 -817.615C12.8367 -833.502 133.239 -831.55 244.662 -811.46L247.186 -811.076C357.689 -794.164 525.879 -744.148 697.078 -677.291C871.539 -609.159 1015.01 -536.27 1080.89 -482.308C1271.92 -375.318 1216.58 -307.656 1132.82 -205.236C1097.62 -162.191 1057.73 -113.404 1027.43 -52.567C1004.66 -7.83594 985.328 32.5091 968.269 68.1047C884.459 242.994 846.212 322.815 658.144 390.012C604.254 409.501 538.589 413.518 462.979 401.946ZM219.316 -816.813C114.764 -832.814 1.05994 -833.412 -138.507 -818.699C-297.783 -801.501 -430.846 -775.38 -545.304 -738.849C-693.793 -692.525 -799.443 -643.374 -868.298 -588.59C-946.471 -526.133 -996.342 -446.272 -1016.53 -351.236C-1038.3 -263.653 -1032.78 -180.064 -1000.59 -109.51C-968.396 -38.9486 -911.208 14.8508 -835.216 46.0668C-756.588 78.9415 -655.947 95.3752 -539.413 114.407L-532.01 115.615C-406.084 139.061 -256.951 169.782 -106.036 219.801C-44.9453 240.421 13.0968 261.602 69.2205 282.087C159.23 314.935 244.253 345.967 327.174 369.196C374.62 385.142 420.169 396.523 462.505 403.002C538.82 414.682 605.111 410.62 659.545 390.93C848.194 323.522 886.497 243.588 970.418 68.4507C987.481 32.858 1006.81 -7.48479 1029.59 -52.21C1059.84 -112.978 1099.7 -161.731 1134.89 -204.738C1178.12 -257.604 1212.26 -299.352 1212.55 -342.472C1212.89 -389.091 1172.81 -432.402 1082.62 -482.912C1016.74 -536.901 873.03 -609.919 698.335 -678.14C526.916 -745.089 358.432 -795.179 247.66 -812.132L245.185 -812.508C236.693 -814.037 227.969 -815.488 219.316 -816.813Z" fill="#EDE9F6"/>
<path d="M460.072 376.326C423.32 370.7 384.095 361.601 343.508 349.284C240.548 326.021 134.097 291.166 21.3896 254.265C-19.0168 241.033 -60.8008 227.351 -103.569 213.828C-259.906 165.466 -414.083 132.029 -526.656 107.61C-634.921 87.9158 -737.119 69.3299 -815.185 34.4912C-887.277 3.68312 -942.073 -48.4834 -973.681 -116.381C-1005.35 -184.416 -1012.12 -264.858 -993.29 -349.013C-978.018 -442.802 -933.461 -521.243 -860.848 -582.153C-796.045 -636.609 -694.478 -685.292 -550.35 -730.986C-432.988 -769.616 -296.229 -796.061 -132.251 -811.832C-3.44538 -823.889 102.785 -822.423 202.066 -807.224C219.086 -804.619 236.18 -801.555 252.867 -798.111C358.681 -781.358 519.558 -732.858 683.347 -668.343C853.135 -601.463 987.934 -532.635 1053.18 -479.499C1238.29 -375.442 1187.38 -309.073 1110.31 -208.613C1078.94 -167.72 1043.38 -121.369 1016.44 -64.1651C995.686 -21.7257 978.05 16.6957 962.479 50.5939C884.775 219.815 849.313 297.05 669.417 362.801C612.886 384.391 542.451 388.937 460.072 376.326ZM202.541 -808.282C102.894 -823.536 -3.67382 -825.008 -132.844 -812.924C-297.101 -797.123 -434.095 -770.631 -551.667 -731.929C-696.044 -686.156 -797.815 -637.367 -862.777 -582.779C-935.547 -521.733 -980.199 -443.148 -995.492 -349.216C-1014.35 -264.953 -1007.56 -184.381 -975.833 -116.222C-944.108 -48.0705 -889.034 4.32082 -816.559 35.2944C-738.156 70.2843 -635.742 88.9108 -527.316 108.633C-414.876 133.021 -260.797 166.443 -104.619 214.751C-61.8853 228.264 -20.1094 241.945 20.2979 255.175C133.08 292.102 239.62 326.983 342.609 350.25C383.249 362.585 422.651 371.725 459.599 377.382C542.69 390.101 613.766 385.503 670.845 363.71C851.298 297.745 886.823 220.399 964.643 50.9299C980.204 17.0328 997.841 -21.3812 1018.59 -63.8189C1045.51 -120.96 1081.04 -167.274 1112.39 -208.14C1152.16 -259.987 1183.58 -300.941 1182.69 -343.125C1181.72 -388.733 1142.31 -430.981 1054.91 -480.1C989.646 -533.27 854.624 -602.222 684.611 -669.192C520.623 -733.784 359.429 -782.367 253.458 -799.146C236.797 -802.581 219.635 -805.665 202.541 -808.282Z" fill="#EDE9F6"/>
<path d="M455.135 352.326C424.481 347.632 392.117 340.701 358.907 331.72C230.758 309.173 97.1272 269.398 -44.3211 227.292C-63.5295 221.573 -82.9026 215.805 -102.484 210.016C-222.152 175.524 -336.027 147.62 -436.495 123.003C-466.72 115.6 -495.266 108.602 -522.516 101.787C-634.189 79.1977 -725.285 59.2018 -797.425 24.7972C-866.102 -5.81513 -918.848 -56.6605 -949.989 -122.248C-981.202 -187.995 -989.26 -265.54 -973.285 -346.505C-962.9 -439.343 -923.492 -516.618 -856.136 -576.203C-795.186 -630.521 -697.391 -678.917 -557.162 -724.145C-438.278 -764.455 -293.457 -792.08 -126.697 -806.273C-7.61938 -816.102 91.6454 -813.971 185.676 -799.572C211.11 -795.678 236.575 -790.769 261.374 -784.997C362.981 -767.962 516.466 -720.797 672.069 -658.8C833.91 -594.316 963.116 -527.879 1026.54 -476.52C1205.97 -375.222 1159.46 -310.007 1089.04 -211.292C1061.38 -172.534 1030.05 -128.606 1006.34 -74.9904C987.631 -34.861 971.66 1.6214 957.586 33.8116C885.862 197.739 853.125 272.552 681.154 337.015C621.59 361.024 545.561 366.172 455.135 352.326ZM186.152 -800.631C91.7666 -815.083 -7.81276 -817.221 -127.252 -807.362C-294.302 -793.15 -439.395 -765.462 -558.493 -725.084C-698.976 -679.775 -796.98 -631.272 -858.088 -576.806C-925.59 -517.087 -965.096 -439.664 -975.491 -346.688C-991.488 -265.626 -983.41 -187.949 -952.137 -122.086C-920.88 -56.2517 -867.875 -5.18907 -798.845 25.577C-726.415 60.1209 -635.104 80.1715 -523.274 102.788C-496.108 109.584 -467.558 116.583 -437.325 123.99C-336.892 148.597 -223.056 176.492 -103.469 210.96C-83.9118 216.745 -64.5335 222.512 -45.3322 228.227C96.231 270.367 229.958 310.172 358.171 332.721C391.328 341.702 423.86 348.666 454.661 353.382C545.819 367.341 622.505 362.134 682.604 337.911C855.137 273.245 887.913 198.313 959.736 34.136C973.826 1.95059 989.778 -34.5297 1008.5 -74.655C1032.19 -128.215 1063.5 -172.113 1091.13 -210.837C1127.47 -261.787 1156.17 -302.029 1154.07 -343.364C1151.78 -388.053 1113 -429.308 1028.27 -477.124C964.817 -528.518 835.417 -595.068 673.354 -659.639C517.533 -721.721 363.774 -768.964 262.034 -786.019C237.262 -791.795 211.687 -796.721 186.152 -800.631Z" fill="#EDE9F6"/>
<path d="M336.498 307.207C200.323 286.348 58.0322 248.499 -100.485 204.825C-165.584 187.403 -227.586 171.399 -287.545 155.923C-371.56 134.239 -450.918 113.752 -517.891 94.6101C-618.542 72.0075 -707.622 50.3419 -779.458 13.7754C-844.811 -16.6146 -895.604 -66.0623 -926.381 -129.24C-957.246 -192.588 -966.675 -267.099 -953.656 -344.721C-948.326 -436.435 -914.124 -512.391 -852 -570.501C-794.978 -624.551 -700.949 -672.523 -564.541 -717.153C-442.476 -759.56 -293.433 -787.504 -121.522 -800.224C-12.9497 -807.976 82.3316 -805.235 169.748 -791.844C203.406 -786.689 237.067 -779.767 269.804 -771.269C467.196 -736.175 864.59 -582.393 1000.71 -473.173C1174.78 -374.698 1132.76 -310.723 1069.15 -213.88C1045.18 -177.401 1018.02 -136.053 997.552 -86.1856C980.91 -48.5468 966.685 -14.1519 954.123 16.1908C888.565 174.637 858.65 246.955 694.449 309.959C631.514 336.681 548.891 342.449 448.866 327.128C425.293 323.517 400.668 318.681 375.673 312.761C362.757 311.077 349.644 309.221 336.498 307.207ZM170.222 -792.901C82.4762 -806.342 -13.1227 -809.093 -122.033 -801.315C-294.262 -788.575 -443.597 -760.572 -565.889 -718.086C-702.56 -673.372 -796.801 -625.287 -853.974 -571.085C-916.254 -512.833 -950.532 -436.727 -955.864 -344.879C-968.901 -267.171 -959.453 -192.537 -928.533 -129.07C-897.642 -65.6627 -846.599 -16.0043 -780.93 14.5337C-708.824 51.2362 -619.53 72.9566 -518.751 95.586C-451.837 114.714 -372.454 135.202 -288.421 156.897C-228.462 172.372 -166.477 188.374 -101.408 205.786C57.2188 249.487 199.63 287.367 336.025 308.259C349.2 310.278 362.346 312.138 375.09 313.789C399.976 319.7 424.714 324.553 448.394 328.18C549.184 343.619 632.465 337.789 695.935 310.845C775.464 280.328 825.642 246.73 863.676 198.513C900.083 152.369 923.669 95.3826 956.301 16.5073C968.854 -13.8344 983.085 -48.2257 999.715 -85.8664C1020.18 -135.679 1047.32 -176.998 1071.26 -213.458C1104.08 -263.438 1130.02 -302.913 1126.61 -343.344C1122.91 -387.066 1084.62 -427.287 1002.44 -473.774C940.701 -523.323 816.739 -587.416 662.431 -649.532C514.629 -709.04 368.117 -754.925 270.527 -772.278C237.815 -780.772 204.023 -787.724 170.222 -792.901Z" fill="#EDE9F6"/>
<path d="M267.457 279.985C139.685 260.409 10.0962 228.969 -99.8142 200.795C-247.607 164.109 -401.317 125.234 -513.933 88.6357C-619.281 62.3471 -697.42 39.0342 -761.742 3.96769C-888.481 -57.8193 -954.31 -190.444 -933.581 -342.167C-933.251 -432.912 -904.203 -507.672 -847.242 -564.403C-794.196 -618.291 -703.983 -665.946 -571.444 -710.116C-448.07 -754.119 -290.69 -783.273 -116.308 -794.441C-16.0032 -800.612 72.6045 -797.506 154.567 -784.948C196.609 -778.507 236.906 -769.678 277.754 -757.958C371.004 -740.331 509.763 -695.884 649.12 -639.015C795.184 -579.41 913.285 -517.858 973.143 -470.142C1141.59 -374.375 1104.1 -311.466 1047.35 -216.236C1026.96 -182.035 1003.85 -143.27 986.485 -97.1381C971.916 -62.0321 959.399 -29.763 948.373 -1.29131C890.666 147.451 861.706 222.112 705.31 283.881C639.535 313.377 546.791 320.07 437.079 303.261C421.858 300.929 406.158 298.125 390.387 294.917C351.332 291.523 310.057 286.512 267.457 279.985ZM155.04 -786.003C72.7606 -798.609 -16.1461 -801.727 -116.776 -795.541C-291.498 -784.35 -449.194 -755.129 -572.806 -711.042C-705.609 -666.788 -796.047 -619 -849.24 -564.969C-906.342 -508.089 -935.466 -433.179 -935.794 -342.302C-956.56 -190.283 -890.449 -57.307 -763.263 4.7017C-691.742 43.6919 -601.352 68.012 -514.899 89.5785C-402.289 126.178 -248.514 165.073 -100.663 201.776C9.32591 229.968 139.025 261.435 266.983 281.04C309.665 287.579 351.048 292.602 389.954 295.968C405.547 299.157 421.311 301.975 436.605 304.318C547.097 321.246 640.536 314.48 706.823 284.752C863.734 222.775 892.744 147.993 950.534 -0.991815C961.575 -29.4588 974.094 -61.7227 988.665 -96.8333C1006.01 -142.916 1029.1 -181.658 1049.47 -215.837C1078.76 -264.987 1101.9 -303.805 1097.21 -343.431C1092.13 -386.272 1054.4 -425.535 974.863 -470.751C914.992 -518.496 796.69 -580.161 650.424 -639.848C510.875 -696.792 371.861 -741.319 278.55 -758.946C237.717 -770.671 197.258 -779.535 155.04 -786.003Z" fill="#EDE9F6"/>
<path d="M190.871 254.763C104.984 241.602 10.1244 222.584 -99.1185 196.62C-279.355 155.255 -413.849 117.912 -510.307 82.4512C-604.877 56.2304 -680.836 31.1629 -744.576 -6.08922C-864.103 -67.3323 -929.117 -195.234 -914.297 -339.911C-919.053 -429.706 -895.156 -503.275 -843.266 -558.616C-794.213 -612.312 -707.754 -659.66 -578.963 -703.367C-419.185 -761.739 -236.514 -782.108 -111.405 -788.916C-18.5519 -793.741 63.8998 -790.37 140.648 -778.609C190.147 -771.024 237.591 -759.981 285.691 -744.85C467.072 -708.331 819.825 -567.167 946.185 -467.217C1109.29 -374.047 1076.39 -312.121 1026.58 -218.39C1009.67 -186.556 990.498 -150.476 976.158 -108.152C963.666 -75.7116 952.869 -45.6822 943.349 -19.1876C891.59 124.853 865.606 197.154 716.808 257.734C646.748 290.894 544.712 298.446 421.673 279.591C416.333 278.773 410.883 277.891 405.47 276.974C338.031 273.827 267.916 266.57 190.871 254.763ZM141.121 -779.664C64.0682 -791.472 -18.6723 -794.857 -111.834 -790.014C-237.197 -783.192 -420.232 -762.777 -580.338 -704.285C-709.408 -660.489 -796.083 -613.016 -845.286 -559.152C-897.313 -503.671 -921.279 -429.938 -916.512 -340.022C-931.358 -195.074 -866.076 -66.8302 -746.149 -5.38478C-682.219 31.9789 -606.054 57.1194 -511.378 83.3661C-414.914 118.833 -280.278 156.217 -99.9153 197.611C9.42618 223.597 104.393 242.639 190.398 255.818C267.601 267.649 337.863 274.919 405.2 278.049C410.36 278.939 415.835 279.824 421.2 280.646C545.027 299.622 647.783 291.996 718.34 258.591C867.652 197.806 893.681 125.385 945.532 -18.8992C955.054 -45.3887 965.836 -75.4132 978.324 -107.864C992.665 -150.151 1011.82 -186.207 1028.73 -218.02C1078.71 -312.098 1111.73 -374.254 947.908 -467.82C821.442 -567.874 468.07 -709.286 286.547 -745.828C238.463 -760.956 190.828 -772.047 141.121 -779.664Z" fill="#EDE9F6"/>
<path d="M114.774 231.562C47.4435 221.241 -22.034 208.161 -97.5977 191.583C-271.097 154.908 -408.589 115.83 -506.267 75.4273C-581.423 52.2781 -660.102 25.1034 -727.26 -16.9415C-839.761 -77.6022 -904.142 -200.633 -895.333 -338.058C-905.483 -428.043 -887.318 -498.301 -839.785 -552.902C-794.793 -606.32 -712.082 -653.252 -586.932 -696.397C-459.179 -744.013 -288.64 -774.72 -106.706 -782.872C-20.5262 -786.533 56.3188 -782.953 128.216 -771.932C184.713 -763.272 238.863 -749.935 293.773 -731.157C466.926 -693.952 796.404 -560.67 920.132 -463.841C1078.24 -373.259 1050.07 -312.319 1007.42 -220.068C993.876 -190.767 978.522 -157.552 967.122 -119.206C956.733 -89.6185 947.677 -62.0156 939.702 -37.6551C894.074 101.691 871.165 171.635 729.781 230.96C639.85 275.817 512.701 270.562 421.862 258.267L421.58 258.245C326.451 257.353 226.09 248.625 114.774 231.562ZM128.688 -772.984C56.5016 -784.049 -20.6193 -787.645 -107.093 -783.977C-289.408 -775.801 -460.311 -745.028 -588.325 -697.315C-713.768 -654.071 -796.693 -607.002 -841.834 -553.415C-889.485 -498.667 -907.715 -428.246 -897.543 -338.144C-906.37 -200.475 -841.743 -77.122 -728.885 -16.2658C-661.543 25.8922 -582.655 53.1427 -507.443 76.3029C-409.716 116.733 -272.023 155.876 -98.3238 192.591C-22.6847 209.186 46.8659 222.276 114.303 232.613C225.781 249.701 326.3 258.447 421.602 259.348C512.982 271.71 640.843 276.947 731.359 231.806C873.227 172.274 896.174 102.207 941.893 -37.3822C949.87 -61.7354 958.905 -89.3413 969.313 -118.931C980.696 -157.257 996.041 -190.445 1009.59 -219.73C1052.37 -312.317 1080.65 -373.482 921.854 -464.451C798.011 -561.372 467.952 -694.89 294.701 -732.109C239.794 -750.897 185.416 -764.288 128.688 -772.984Z" fill="#EDE9F6"/>
<path d="M44.1283 213.104C-1.86132 206.053 -49.5015 197.564 -97.4863 187.876C-267.691 154.837 -407.942 113.978 -503.103 69.7169C-595.331 38.0537 -657.309 9.28146 -710.484 -26.5437C-762.323 -56.1493 -805.018 -100.206 -834.008 -153.991C-863.172 -208.1 -877.795 -270.855 -876.29 -335.47C-891.716 -424.556 -878.535 -493.693 -835.987 -546.891C-795.069 -600.13 -716.119 -646.783 -594.627 -689.516C-463.835 -739.363 -288.916 -770.536 -102.049 -777.305C-21.9481 -780.025 49.7115 -776.334 117.024 -766.015C179.958 -756.366 240.255 -740.673 301.372 -718.035C467.817 -679.726 773.191 -553.574 892.618 -460.855C1045.64 -372.644 1022.25 -312.427 986.858 -221.275C976.499 -194.585 964.746 -164.334 956.103 -130.013C947.752 -103.409 940.738 -79.4159 933.959 -56.2194C894.417 78.9913 874.574 146.859 740.512 205.205C653.317 251.173 526.923 249.912 436.246 240.769L435.96 240.757C315.787 243.844 183.956 234.54 44.1283 213.104ZM117.497 -767.069C49.9119 -777.43 -22.0182 -781.139 -102.398 -778.408C-289.665 -771.627 -464.971 -740.38 -596.035 -690.429C-717.822 -647.591 -796.998 -600.792 -838.058 -547.374C-880.725 -494.026 -893.956 -424.73 -878.504 -335.528C-880.009 -270.864 -865.359 -208.003 -836.136 -153.795C-807.055 -99.8331 -764.179 -55.6079 -712.152 -25.8981C-658.865 10.0073 -596.712 38.8646 -504.386 70.5525C-409.139 114.863 -268.613 155.806 -98.1374 188.901C-50.1119 198.595 -2.39848 207.096 43.6562 214.156C183.684 235.623 315.732 244.946 436.136 241.868C527.33 251.051 654.39 252.28 742.107 206.033C876.651 147.481 896.537 79.4888 936.148 -55.9638C942.928 -79.1626 949.939 -103.147 958.292 -129.765C966.931 -164.067 978.675 -194.3 989.037 -220.977C1024.56 -312.448 1048.02 -372.881 894.343 -461.462C839.801 -503.818 738.078 -558.223 615.376 -610.656C500.147 -659.896 383.132 -700.385 302.356 -718.968C241.24 -741.627 180.7 -757.38 117.497 -767.069Z" fill="#EDE9F6"/>
<path d="M-13.4297 197.632C-40.677 193.454 -68.4142 188.759 -95.8806 183.684C-266.853 153.343 -406.12 111.802 -498.657 63.5484C-580.666 32.1249 -640.424 1.27203 -692.555 -36.5536C-792.332 -97.0807 -853.549 -207.89 -856.368 -333.017C-877.211 -421.121 -869.05 -489.059 -831.422 -540.774C-794.638 -593.769 -719.45 -640.07 -601.564 -682.33C-467.739 -734.341 -288.392 -765.91 -96.5326 -771.24C-21.8733 -773.154 45.106 -769.375 108.238 -759.695C177.189 -749.123 243.184 -731.031 310.007 -704.382C466.161 -665.784 753.485 -544.317 866.525 -457.47C1014.8 -371.527 996.395 -311.923 968.505 -221.714C961.136 -197.861 952.772 -170.826 946.741 -140.745C940.388 -117.37 935.002 -96.0442 929.796 -75.4217C897.659 51.7008 879.961 121.727 753.026 179.119C668.621 226.107 542.926 228.831 452.329 222.844C307.343 231.284 150.73 222.803 -13.4297 197.632ZM108.712 -760.751C45.3236 -770.471 -21.9192 -774.263 -96.843 -772.342C-289.123 -767.003 -468.869 -735.36 -602.984 -683.237C-721.18 -640.867 -796.598 -594.41 -833.511 -541.225C-871.253 -489.365 -879.452 -421.263 -858.572 -333.039C-855.753 -207.718 -794.334 -96.6301 -694.277 -35.9411C-642.058 1.9565 -582.13 32.8962 -500.047 64.3406C-407.391 112.668 -267.785 154.317 -96.4745 184.717C-68.9685 189.801 -41.1784 194.504 -13.9026 198.686C150.562 223.904 307.477 232.4 452.511 223.943C543.33 229.957 669.745 227.207 754.662 179.934C882.06 122.33 899.795 52.1739 931.991 -75.1872C937.201 -95.809 942.589 -117.13 948.93 -140.526C954.962 -170.59 963.319 -197.608 970.695 -221.451C998.671 -311.975 1017.15 -371.779 868.247 -458.08C814.701 -499.224 720.981 -549.864 604.443 -600.603C497.344 -647.231 387.664 -686.367 311.059 -705.294C244.218 -731.97 177.96 -750.134 108.712 -760.751Z" fill="#EDE9F6"/>
<path d="M-60.5479 184.724C-72.2124 182.935 -84.0182 181.035 -95.6338 179.079C-268.069 151.244 -406.264 109.05 -495.275 57.0532C-567.207 26.1949 -624.445 -6.79191 -675.555 -46.8263C-768.173 -106.813 -828.582 -212.905 -837.206 -330.665C-863.904 -418.976 -860.852 -483.78 -827.607 -534.661C-795.022 -587.376 -723.645 -633.303 -609.398 -675.08C-474.614 -728.457 -286.145 -761.254 -92.2793 -765.078C-22.5796 -766.31 40.1166 -762.487 99.3864 -753.399C174.947 -741.811 244.114 -721.886 317.068 -690.689C463.757 -651.613 728.878 -537.46 838.432 -454.195C982.209 -370.337 968.941 -311.154 948.857 -221.564C944.214 -200.825 938.949 -177.323 935.276 -151.751C930.848 -131.879 927.021 -113.502 923.334 -95.7294C897.64 27.9291 883.498 96.0452 763.543 152.623C682.039 200.571 557.101 207.288 466.635 204.489C301.634 219.16 119.408 212.32 -60.5479 184.724ZM99.8599 -754.454C40.338 -763.582 -22.6032 -767.42 -92.558 -766.181C-286.856 -762.35 -475.76 -729.467 -610.84 -675.973C-725.401 -634.087 -797.008 -587.996 -829.718 -535.08C-863.066 -484.044 -866.147 -419.082 -839.403 -330.66C-830.772 -212.731 -770.178 -106.383 -677.322 -46.2481C-626.148 -6.15295 -568.754 26.921 -496.766 57.7926C-407.586 109.896 -269.008 152.223 -96.159 180.125C-84.5353 182.082 -72.7082 183.983 -61.0193 185.775C119.291 213.425 301.854 220.276 466.945 205.58C557.638 208.407 683.25 201.64 765.215 153.42C885.613 96.6292 899.797 28.3811 925.534 -95.5183C929.223 -113.288 933.037 -131.665 937.479 -151.549C941.154 -177.124 946.416 -200.618 951.057 -221.343C961.437 -267.654 969.641 -304.229 957.41 -340.669C944.203 -380.013 908.048 -415.217 840.157 -454.806C788.469 -494.092 700.215 -542.331 591.722 -590.573C492.829 -634.546 390.579 -672.302 318.2 -691.575C245.198 -722.811 175.75 -742.817 99.8599 -754.454Z" fill="#EDE9F6"/>
<path d="M-109.199 173.525C-276.828 147.818 -409.057 105.662 -491.585 51.6084C-555.33 20.8364 -606.703 -12.3879 -658.272 -56.19C-743.844 -115.784 -803.413 -217.329 -817.689 -327.877C-850.005 -415.326 -851.776 -479.045 -823.295 -528.468C-795.286 -580.258 -725.725 -627.206 -616.523 -668.037C-478.749 -723.66 -285.759 -756.952 -87.0086 -759.384C-21.7435 -760.061 37.102 -756.227 92.8877 -747.672C173.788 -735.265 247.649 -712.946 325.317 -677.426C467.381 -636.452 705.432 -530.978 811.698 -451.037C951.482 -368.849 943.993 -312.804 931.59 -219.95C929.176 -201.838 926.675 -183.118 925.017 -162.364C922.319 -146.311 919.964 -131.209 917.663 -116.605C898.743 4.35173 888.316 70.9772 774.973 127.076C696.339 176.045 572.064 186.816 481.643 187.239C297.156 209.032 97.8503 205.02 -94.9519 175.659C-99.745 174.955 -104.48 174.248 -109.199 173.525ZM93.3626 -748.731C37.3371 -757.323 -21.7462 -761.169 -87.2512 -760.49C-286.456 -758.052 -479.895 -724.678 -617.973 -668.929C-727.497 -627.981 -797.305 -580.85 -825.426 -528.85C-853.999 -479.271 -852.24 -415.397 -819.879 -327.836C-805.597 -217.149 -745.854 -115.371 -660.091 -55.6481C-608.465 -11.791 -556.964 21.516 -493.176 52.2993C-410.454 106.489 -277.798 148.798 -109.673 174.581C-104.946 175.306 -100.203 176.014 -95.4073 176.713C97.7678 206.134 297.47 210.151 482.097 188.329C572.733 187.919 697.624 177.082 776.665 127.855C890.458 71.5389 900.899 4.77468 919.878 -116.421C922.159 -131.027 924.524 -146.123 927.222 -162.195C928.877 -182.962 931.388 -201.676 933.798 -219.777C939.995 -266.172 944.886 -302.814 930.806 -339.04C915.634 -378.108 879.431 -412.836 813.412 -451.653C763.59 -489.14 680.767 -535.047 580.289 -580.854C489.592 -622.202 394.716 -658.63 326.508 -678.29C248.78 -713.858 174.621 -736.269 93.3626 -748.731Z" fill="#EDE9F6"/>
<path d="M-131.668 166.327C-290.179 142.015 -413.364 100.272 -487.905 45.6136C-542.391 15.9135 -589.652 -18.5132 -641.255 -66.0832C-720.028 -125.353 -778.913 -222.294 -798.824 -325.449C-837.501 -413.177 -843.976 -473.918 -819.829 -522.481C-796.003 -574.021 -730.255 -620.629 -624.406 -661.034C-483.555 -718.837 -285.879 -752.544 -82.0264 -753.515C-20.725 -753.703 34.6835 -749.864 87.3522 -741.786C173.432 -728.583 251.73 -703.837 333.761 -663.912C465.482 -622.628 683.392 -523.719 785.823 -447.658C922.56 -366.676 920.503 -310.121 917.116 -216.423C916.626 -202.612 916.096 -188.321 915.99 -172.949C914.778 -161.192 913.692 -149.869 912.643 -138.978C901.221 -20.0706 894.924 45.4255 787.743 101.278C712.007 151.157 588.257 165.966 497.781 169.617C305.164 197.578 100.695 198.295 -93.761 171.711C-106.533 170.039 -119.285 168.226 -131.668 166.327ZM87.8251 -742.84C34.9286 -750.953 -20.6996 -754.807 -82.2441 -754.62C-286.565 -753.642 -484.705 -719.858 -625.873 -661.922C-732.059 -621.396 -798.052 -574.59 -821.981 -522.831C-846.204 -474.107 -839.735 -413.208 -801.007 -325.371C-781.076 -222.104 -722.049 -124.958 -643.12 -65.5798C-591.478 -17.9624 -544.106 16.5394 -489.585 46.2474C-414.832 101.075 -291.192 142.985 -132.14 167.379C-119.725 169.283 -106.944 171.1 -94.1394 172.777C100.684 199.416 305.58 198.696 498.354 170.696C589.048 167.052 713.366 152.159 789.478 102.035C897.105 45.9616 903.408 -19.6744 914.857 -138.826C915.908 -149.719 916.992 -161.037 918.202 -172.821C918.308 -188.212 918.826 -202.495 919.333 -216.306C921.02 -263.204 922.371 -300.238 906.169 -336.495C888.705 -375.551 852.125 -410.025 787.537 -448.272C685.02 -524.402 466.747 -623.481 335.021 -664.754C252.904 -704.74 174.287 -729.579 87.8251 -742.84Z" fill="#EDE9F6"/>
<path d="M-148.97 159.915C-300.611 136.655 -416.474 94.9925 -484.035 39.4244C-537.831 6.08492 -578.819 -30.8577 -623.834 -76.0934C-696.961 -136.048 -753.609 -226.025 -779.311 -322.997C-809.378 -381.434 -840.649 -456.157 -815.627 -516.372C-796.037 -567.629 -734.169 -613.885 -631.739 -653.856C-490.069 -712.951 -282.722 -747.948 -77.0615 -747.475C-19.4156 -747.256 32.7994 -743.435 82.5616 -735.802C174.75 -721.661 254.682 -695.303 341.72 -650.318C465.185 -608.026 662.165 -515.223 758.876 -444.364C893.601 -363.864 897.454 -305.988 903.841 -210.096C904.417 -201.619 904.995 -192.857 905.683 -183.767C905.501 -176.933 905.348 -170.233 905.177 -163.686C902.403 -49.6989 900.718 19.102 799.297 75.1347C726.564 125.853 603.463 144.728 512.985 151.64C315.637 185.371 100.543 190.981 -92.8427 167.468C-111.918 165.244 -130.803 162.702 -148.97 159.915ZM83.0344 -736.856C33.0525 -744.523 -19.376 -748.362 -77.2426 -748.584C-173.67 -748.801 -273.524 -741.125 -366.036 -726.374C-468.554 -710.03 -558.445 -685.934 -633.215 -654.743C-736.008 -614.628 -798.118 -568.174 -817.799 -516.683C-842.91 -456.254 -811.581 -381.369 -781.48 -322.881C-755.761 -225.821 -698.987 -135.677 -625.75 -75.6297C-580.709 -30.3657 -539.646 6.64415 -485.802 40.0008C-418.012 95.7667 -301.669 137.62 -149.442 160.969C-131.227 163.763 -112.288 166.311 -93.168 168.542C3.25801 180.269 104.169 184.91 206.752 182.335C310.695 179.73 413.959 169.76 513.686 152.712C604.363 145.794 728.007 126.822 801.061 75.8716C902.922 19.6052 904.608 -49.3436 907.399 -163.573C907.545 -170.121 907.713 -176.817 907.899 -183.677C907.199 -192.798 906.624 -201.559 906.055 -210.031C899.653 -306.173 895.788 -364.206 760.595 -444.979C663.783 -515.905 466.512 -608.852 343.05 -651.134C255.887 -696.186 175.641 -722.651 83.0344 -736.856Z" fill="#EDE9F6"/>
<path d="M-163.436 153.918C-309.817 131.463 -419.621 89.631 -480.967 32.9517C-531.124 -2.64844 -568.109 -43.3059 -607.261 -86.3509C-673.89 -146.427 -729.797 -231.84 -760.688 -320.731C-796.993 -382.095 -831.494 -452.563 -812.345 -510.382C-797.034 -561.326 -739.051 -607.207 -640.002 -646.742C-495.452 -707.954 -283.511 -743.346 -73.0376 -741.427C-18.7409 -740.852 30.5504 -737.061 77.6621 -729.834C174.598 -714.963 258.212 -686.248 348.759 -636.729C463.219 -593.613 637.421 -508.702 731.075 -441.107C865.968 -359.718 876.491 -298.972 893.928 -198.327L894.565 -194.677L894.753 -191.734C902.065 -77.2107 906.487 -8.08164 810.045 48.8015C740.395 100.273 617.914 123.228 527.419 133.429C322.829 173.341 102.654 183.805 -92.6995 162.923C-116.938 160.43 -140.732 157.401 -163.436 153.918ZM78.1355 -730.89C30.8164 -738.149 -18.6812 -741.954 -73.1955 -742.528C-284.161 -744.455 -496.611 -708.974 -641.498 -647.622C-740.918 -607.928 -799.139 -561.846 -814.532 -510.649C-833.753 -452.613 -799.18 -381.996 -762.838 -320.568C-731.933 -231.622 -675.925 -146.074 -609.217 -85.9253C-570.059 -42.8723 -533.031 -2.16459 -482.82 33.4682C-421.228 90.3842 -310.924 132.419 -163.909 154.972C-141.135 158.465 -117.267 161.503 -92.9614 164.002C102.8 184.931 323.416 174.445 528.233 134.484C618.926 124.266 741.9 101.21 811.853 49.518C908.721 -7.61759 904.294 -76.898 896.958 -191.67L896.766 -194.643L896.127 -198.327C878.653 -299.201 868.104 -360.082 732.797 -441.719C639.045 -509.377 464.608 -594.414 350.154 -637.512C259.469 -687.123 175.518 -715.95 78.1355 -730.89Z" fill="#EDE9F6"/>
<path d="M-174.113 149.51C-316.285 127.698 -420.834 85.52 -476.474 27.5347C-513.565 -2.96409 -541.777 -37.5845 -571.651 -74.2336C-577.354 -81.2331 -583.163 -88.3555 -589.15 -95.6046C-649.889 -156.639 -704.993 -237.542 -740.353 -317.601C-781.08 -378.316 -820.844 -447.845 -807.222 -503.655C-796.19 -554.316 -742.09 -599.86 -646.408 -639.016C-499.006 -702.415 -282.529 -738.271 -67.333 -734.928C-16.1207 -734.067 30.4768 -730.322 75.11 -723.475C176.622 -707.901 263.648 -676.819 357.267 -622.698C461.527 -579.157 614.199 -501.553 704.535 -437.337C832.816 -358.982 858.092 -297.267 884.495 -204.931C902.741 -99.8048 909.476 -32.5167 821.752 23.3223C755.2 75.5352 633.356 102.627 542.852 116.168C331.281 162.363 106.109 177.727 -91.332 159.452C-119.916 156.898 -147.768 153.552 -174.113 149.51ZM75.5822 -724.528C30.75 -731.406 -16.0345 -735.17 -67.457 -736.037C-283.174 -739.379 -500.159 -703.437 -647.91 -639.887C-743.987 -600.568 -798.333 -554.805 -809.419 -503.878C-823.093 -447.855 -783.25 -378.174 -742.481 -317.396C-707.109 -237.307 -651.94 -156.305 -591.146 -95.2216C-585.195 -88.0169 -579.391 -80.8952 -573.69 -73.8986C-543.778 -37.1999 -515.526 -2.54187 -478.398 27.9916C-451.555 55.9695 -412.687 80.6068 -362.923 101.165C-310.539 122.805 -247.171 139.425 -174.584 150.561C-148.15 154.617 -120.211 157.971 -91.5361 160.536C106.32 178.854 331.938 163.464 543.771 117.209C634.474 103.64 756.768 76.4358 823.592 24.0145C911.731 -32.0834 904.986 -99.5429 886.688 -204.959C860.233 -297.528 834.882 -359.385 706.245 -437.956C615.846 -502.223 462.981 -579.929 358.737 -623.448C264.935 -677.684 177.562 -708.882 75.5822 -724.528Z" fill="#EDE9F6"/>
<path d="M-183.785 144.21C-322.742 122.888 -422.863 80.2145 -473.306 20.8056C-501.271 -6.14315 -522.482 -36.1091 -544.941 -67.8362C-553.719 -80.2354 -562.798 -93.0592 -572.604 -106.179C-613.545 -152.624 -672.663 -226.66 -721.945 -315.802C-769.576 -378.889 -812.485 -444.616 -804.236 -498.243C-797.554 -548.6 -747.287 -593.785 -654.838 -632.537C-504.442 -698.087 -283.192 -734.343 -62.9681 -729.516C-15.206 -728.417 30.2281 -724.607 72.0554 -718.188C178.167 -701.906 268.533 -668.437 365.072 -609.669C451.197 -569.481 584.693 -499.548 677.868 -434.516C797.184 -360.706 839.096 -300.821 874.709 -216.113C906.005 -115.418 908.271 -54.8235 833.803 -3.13598C770.335 49.713 648.99 80.9453 558.356 97.842C339.742 150.283 109.28 170.485 -90.6754 154.741C-123.079 152.263 -154.404 148.718 -183.785 144.21ZM72.5275 -719.242C30.5132 -725.688 -15.1089 -729.516 -63.0653 -730.618C-165.225 -732.857 -272.094 -725.889 -372.126 -710.471C-480.856 -693.709 -579.145 -667.056 -656.356 -633.406C-749.223 -594.478 -799.724 -549.062 -806.444 -498.417C-814.72 -444.583 -771.732 -378.713 -724.04 -315.551C-674.753 -226.389 -615.588 -152.295 -574.641 -105.844C-564.868 -92.7655 -555.795 -79.9475 -547.015 -67.5528C-524.533 -35.7883 -503.296 -5.78436 -475.295 21.1991C-450.954 49.8647 -414.449 74.9798 -366.819 95.8005C-316.653 117.731 -255.234 134.372 -184.257 145.263C-154.766 149.788 -123.332 153.343 -90.8253 155.832C109.562 171.61 340.464 151.376 559.371 98.8637C650.211 81.9259 771.971 50.5802 835.671 -2.47574C872.63 -28.1131 891.94 -57.3828 896.402 -94.549C900.876 -131.886 889.666 -175.086 876.883 -216.213C841.179 -301.134 799.164 -361.157 679.574 -435.132C586.348 -500.206 452.713 -570.216 366.612 -610.379C269.864 -669.293 179.127 -702.885 72.5275 -719.242Z" fill="#EDE9F6"/>
<path d="M-191.707 140.199C-327.851 119.306 -423.841 76.0738 -469.302 15.171C-490.432 -9.13627 -506.268 -35.8077 -523.035 -64.0431C-532.922 -80.6889 -543.142 -97.9073 -555.009 -115.597C-564.121 -127.519 -573.736 -139.955 -583.717 -152.864C-620.854 -200.894 -662.939 -255.33 -702.159 -312.778C-762.829 -384.865 -802.61 -442.835 -799.655 -491.538C-797.32 -541.571 -750.943 -586.397 -661.801 -624.761C-510.883 -691.466 -279.489 -729.066 -57.913 -722.897C-12.7508 -721.592 30.3032 -717.841 70.0425 -711.743C182 -694.562 272.572 -659.809 372.899 -595.544C410.913 -575.482 543.035 -504.447 650.685 -430.7C756.516 -364.163 818.309 -304.975 864.018 -226.382C897.534 -157.178 918.422 -85.318 844.865 -28.7223C797.139 13.5612 703.215 51.2891 573.209 80.4076C347.972 139.136 112.519 164.209 -89.7999 151.02C-125.525 148.733 -159.809 145.094 -191.707 140.199ZM70.5154 -712.798C30.6014 -718.923 -12.6365 -722.69 -57.9855 -723.995C-161.99 -726.892 -271.121 -720.153 -373.599 -704.504C-484.811 -687.523 -584.998 -660.245 -663.336 -625.62C-752.908 -587.069 -799.517 -541.998 -801.86 -491.666C-804.836 -442.762 -764.974 -384.663 -704.217 -312.468C-665.011 -255.037 -622.914 -200.589 -585.769 -152.548C-575.792 -139.642 -566.18 -127.207 -557.083 -115.311C-545.249 -97.6633 -535.031 -80.4574 -525.15 -63.8197C-508.356 -35.5463 -492.5 -8.84264 -471.34 15.5032C-449.406 44.8928 -415.125 70.5126 -369.467 91.6345C-321.366 113.888 -261.72 130.58 -192.179 141.252C-160.155 146.166 -125.738 149.821 -89.8868 152.115C112.863 165.331 348.754 140.221 574.307 81.4077C704.641 52.216 798.892 14.3491 846.784 -28.0908C879.091 -52.9489 895.504 -81.7374 896.891 -116.074C898.097 -145.676 888.333 -180.787 866.149 -226.573C820.331 -305.358 758.414 -364.667 652.398 -431.325C544.697 -505.101 412.474 -576.185 374.516 -596.215C273.932 -660.655 182.989 -695.538 70.5154 -712.798Z" fill="#EDE9F6"/>
<path d="M-198.711 136.291C-330.721 116.029 -425.557 70.933 -465.748 9.30904C-481.578 -12.9577 -493.174 -37.1583 -505.452 -62.7834C-515.14 -82.9963 -525.155 -103.902 -537.96 -125.368C-571.553 -177.369 -620.333 -235.491 -671.967 -297.025L-683.091 -310.282C-739.162 -370.433 -794.04 -433.498 -795.893 -485.524C-797.944 -535.268 -755.402 -579.771 -669.446 -617.793C-515.612 -686.694 -279.382 -724.765 -52.938 -717.152C-10.1364 -715.679 30.7445 -711.986 68.5761 -706.18C214.928 -683.717 308.691 -630.889 381.099 -582.175C428.852 -553.277 523.877 -494.794 624.187 -427.49C708.912 -373.188 795.407 -312.548 854.242 -237.059C909.709 -159.277 910.531 -101.279 856.815 -54.5486C810.928 -11.226 720.72 28.2587 588.681 62.8247C356.726 127.904 116.069 157.865 -88.9653 147.198C-127.709 145.192 -164.631 141.521 -198.711 136.291ZM69.0481 -707.233C31.0499 -713.065 -10.0109 -716.774 -52.9862 -718.256C-279.975 -725.883 -516.782 -687.717 -670.997 -618.645C-757.402 -580.427 -800.17 -535.66 -798.107 -485.604C-796.242 -433.354 -741.261 -370.161 -685.106 -309.915L-673.999 -296.677C-622.376 -235.169 -573.624 -177.071 -540.069 -125.129C-527.284 -103.705 -517.278 -82.8176 -507.602 -62.6185C-495.303 -36.9635 -483.694 -12.7318 -467.832 9.57866C-448.156 39.7476 -415.912 65.9383 -372.001 87.4182C-325.726 110.049 -267.585 126.848 -199.184 137.346C-164.966 142.598 -127.89 146.282 -89.0014 148.297C116.468 158.982 357.57 128.977 589.869 63.8076C722.234 29.1534 812.721 -10.468 858.783 -53.9482C912.794 -100.949 912.017 -159.233 856.302 -237.361C797.344 -313.013 710.734 -373.746 625.902 -428.107C525.57 -495.42 430.518 -553.921 382.797 -582.803C310.183 -631.659 216.087 -684.665 69.0481 -707.233Z" fill="#EDE9F6"/>
<path d="M-204.685 132.546C-334.813 112.57 -426.158 66.7283 -461.893 3.46376C-473.457 -17.1237 -481.591 -39.347 -490.206 -62.8719C-498.752 -86.231 -507.593 -110.385 -520.574 -135.1C-545.765 -183.051 -588.549 -234.677 -663.635 -307.717C-727.263 -369.698 -784.929 -429.469 -791.681 -479.402C-798.128 -528.842 -759.435 -573.016 -676.665 -610.702C-519.962 -681.8 -278.97 -720.34 -47.7337 -711.286C-7.15649 -709.675 31.684 -706.05 67.72 -700.518C219.556 -677.21 315.523 -620.808 389.367 -568.713C401.374 -560.228 413.626 -551.516 426.179 -542.583C476.23 -506.989 532.952 -466.644 597.644 -424.219C612.968 -414.172 628.969 -403.862 644.448 -393.89C716.736 -347.314 791.481 -299.158 844.358 -247.715C906.657 -187.059 915.28 -127.636 868.637 -80.3976C825.274 -36.7083 736.28 5.55299 604.116 45.2135C365.588 116.643 119.804 151.503 -87.9785 143.367C-129.459 141.708 -168.726 138.065 -204.685 132.546ZM68.1931 -701.574C31.9987 -707.13 -7.01347 -710.769 -47.7552 -712.391C-279.553 -721.463 -521.136 -682.825 -678.232 -611.546C-761.47 -573.651 -800.379 -529.2 -793.884 -479.43C-787.1 -429.278 -729.326 -369.379 -665.583 -307.285C-590.583 -234.324 -547.852 -182.775 -522.713 -134.911C-509.752 -110.239 -500.918 -86.1072 -492.377 -62.7682C-483.757 -39.2158 -475.611 -16.9691 -464.012 3.67485C-446.514 34.6497 -416.206 61.4342 -373.916 83.2948C-329.347 106.323 -272.572 123.25 -205.157 133.599C-169.036 139.144 -129.601 142.8 -87.956 144.47C15.5073 148.519 128.792 141.906 248.766 124.812C367.776 107.854 487.748 81.3945 605.375 46.1736C737.856 6.41621 827.103 -35.9811 870.64 -79.8377C917.586 -127.384 908.949 -187.163 846.304 -248.152C793.326 -299.69 718.505 -347.899 646.15 -394.52C630.673 -404.486 614.679 -414.792 599.372 -424.837C534.688 -467.242 477.986 -507.574 427.946 -543.163C415.403 -552.09 403.137 -560.809 391.136 -569.296C317.042 -621.57 220.737 -678.157 68.1931 -701.574Z" fill="#EDE9F6"/>
<path d="M-201.766 118.814C-331.295 98.9253 -421.606 54.7021 -456.061 -5.71186C-468.287 -27.1081 -476.509 -49.9083 -485.209 -74.044C-492.956 -95.529 -500.966 -117.746 -512.413 -140.636C-517.846 -151.359 -524.406 -162.64 -531.906 -174.167C-556.779 -212.392 -592.195 -253.93 -646.732 -308.852C-706.361 -369.12 -760.33 -427.246 -765.729 -475.938C-770.878 -524.072 -732.9 -567.053 -652.855 -603.688C-560.637 -645.952 -440.516 -675.414 -305.483 -688.894C-219.072 -697.947 -127.024 -700.485 -39.265 -696.243C-0.575581 -694.505 36.6112 -690.925 71.2508 -685.606C164.327 -671.314 244.331 -644.218 323.011 -600.335C344.525 -588.269 366.279 -574.752 389.501 -559.015C407.895 -546.703 426.59 -534.017 446.391 -520.588C490.781 -490.492 541.072 -456.379 596.326 -420.866C605.393 -415.074 614.549 -409.257 623.759 -403.407C686.383 -363.617 751.149 -322.472 802.485 -279C814.686 -268.677 825.846 -258.466 835.642 -248.648C894.774 -189.647 902.422 -131.676 857.189 -85.4147C814.872 -42.2683 728.844 -0.723327 601.523 38.0699C516.503 64.463 423.802 85.8985 325.994 101.784C257.975 113.055 188.415 121.335 119.256 126.393C49.8134 131.437 -15.1784 132.479 -85.2919 129.665C-126.528 127.999 -165.721 124.349 -201.766 118.814ZM71.7217 -686.658C36.9277 -692 -0.415475 -695.599 -39.2593 -697.341C-127.225 -701.598 -219.505 -699.047 -306.106 -689.975C-441.494 -676.46 -561.948 -646.915 -654.427 -604.533C-734.929 -567.692 -773.116 -524.438 -767.935 -475.978C-762.514 -427.064 -708.441 -368.819 -648.695 -308.435C-594.213 -253.565 -558.84 -212.078 -534 -173.914C-526.519 -162.411 -519.974 -151.156 -514.551 -140.46C-503.126 -117.607 -495.124 -95.4106 -487.385 -73.9462C-478.674 -49.7774 -470.441 -26.9535 -458.181 -5.49863C-423.49 55.3277 -332.592 99.852 -202.238 119.868C-166.03 125.428 -126.679 129.092 -85.2813 130.766C-14.9961 133.584 50.1654 132.542 119.766 127.486C189.045 122.419 258.716 114.125 326.852 102.836C424.801 86.9255 517.652 65.4571 602.806 39.0263C730.439 0.137875 816.702 -41.5455 859.195 -84.8615C904.717 -131.428 897.06 -189.745 837.607 -249.07C827.779 -258.911 816.595 -269.148 804.364 -279.49C752.948 -323.038 688.136 -364.214 625.45 -404.04C616.239 -409.888 607.079 -415.706 598.026 -421.498C542.791 -456.996 494.669 -489.631 448.124 -521.191C428.329 -534.621 409.634 -547.307 391.236 -559.62C367.963 -575.389 346.169 -588.932 324.601 -601.023C245.603 -645.088 165.249 -672.296 71.7217 -686.658Z" fill="#EDE9F6"/>
<path d="M-199.71 104.964C-328.405 85.1969 -417.537 42.6434 -450.682 -14.8565C-463.613 -37.0978 -471.88 -60.4619 -480.634 -85.1997C-487.56 -104.769 -494.716 -125.003 -504.664 -145.991C-509.714 -156.368 -515.828 -167.333 -522.841 -178.589C-546.093 -215.919 -579.182 -256.332 -630.131 -309.619C-685.719 -368.099 -735.949 -424.513 -739.991 -471.918C-743.826 -518.699 -706.612 -560.439 -629.362 -595.98C-538.643 -637.974 -421.266 -665.847 -289.924 -676.593C-206.778 -684.215 -119.913 -685.491 -31.7237 -680.376C5.01254 -678.524 40.4531 -675 73.6154 -669.906C164.613 -655.929 243.678 -629.864 322.456 -587.881C343.815 -576.385 365.356 -563.55 388.319 -548.64C415.525 -531.421 443.641 -513.221 473.396 -493.952C511.251 -469.441 550.388 -444.098 593.497 -416.979L598.115 -414.104C667.303 -371.095 738.833 -326.621 793.72 -278.878C805.286 -268.837 815.888 -258.86 825.2 -249.241C881.103 -191.958 887.787 -135.506 844.004 -90.2797C802.77 -47.7207 719.818 -6.93833 597.468 30.9406C515.96 57.1473 426.533 77.2303 324.071 92.3521C257.967 102.519 190.851 109.724 118.892 114.39C53.6183 118.558 -6.89116 118.996 -83.4182 115.852C-124.416 114.183 -163.539 110.52 -199.71 104.964ZM74.0877 -670.96C40.7792 -676.076 5.1925 -679.614 -31.6818 -681.477C-120.072 -686.599 -207.155 -685.32 -290.489 -677.676C-422.202 -666.904 -539.938 -638.948 -630.943 -596.822C-708.627 -561.076 -746.063 -519.072 -742.198 -471.971C-738.137 -424.357 -687.802 -367.818 -632.107 -309.219C-581.211 -255.987 -548.161 -215.623 -524.944 -178.35C-517.947 -167.118 -511.848 -156.175 -506.808 -145.824C-496.879 -124.873 -489.724 -104.655 -482.808 -85.1046C-474.049 -60.3393 -465.766 -36.9413 -452.8 -14.6415C-436.501 13.6328 -406.557 38.4556 -363.792 59.1381C-320.069 80.2855 -265.02 96.0572 -200.181 106.016C-163.852 111.596 -124.561 115.273 -83.3982 116.95C-6.70477 120.101 53.9388 119.663 119.367 115.48C191.445 110.809 258.671 103.592 324.881 93.412C427.519 78.2662 517.112 58.1409 598.762 31.8881C721.423 -6.08358 804.617 -47.0008 846.009 -89.727C890.082 -135.252 883.395 -192.047 827.171 -249.649C817.833 -259.298 807.207 -269.289 795.607 -279.361C740.63 -327.183 669.031 -371.697 599.78 -414.749L595.179 -417.615C552.091 -444.724 512.952 -470.069 475.098 -494.575C445.336 -513.847 417.225 -532.049 390.013 -549.272C367.018 -564.199 345.429 -577.063 324.011 -588.592C244.923 -630.744 165.508 -656.918 74.0877 -670.96Z" fill="#EDE9F6"/>
<path d="M-197.955 91.0296C-324.095 71.6477 -414.469 29.6361 -445.911 -24.2351C-459.648 -47.4181 -467.934 -71.3868 -476.711 -96.7635C-482.818 -114.425 -489.129 -132.68 -497.656 -151.736C-502.352 -161.793 -508.038 -172.46 -514.562 -183.44C-536.24 -219.919 -567.077 -259.254 -614.551 -310.98C-666.221 -367.741 -712.828 -422.511 -715.539 -468.694C-718.086 -514.178 -681.565 -554.721 -607.005 -589.196C-517.634 -630.956 -402.798 -657.261 -274.898 -665.271C-196.198 -671.379 -111.873 -671.446 -24.2318 -665.483C10.5706 -663.518 44.2772 -660.047 75.9757 -655.177C165.089 -641.484 243.429 -616.402 322.532 -576.243C343.787 -565.287 365.171 -553.116 387.896 -539.031C428.356 -514.902 471.098 -488.396 516.35 -460.339C540.556 -445.324 565.587 -429.802 591.837 -413.669C660.816 -372.027 732.664 -327.348 786.526 -279.159C797.529 -269.354 807.582 -259.61 816.418 -250.186C869.219 -194.555 874.956 -139.55 832.562 -95.3107C792.348 -53.2929 712.327 -13.2363 594.73 23.7531C515.833 49.99 429.501 68.785 323.004 82.9016C259.884 91.8232 193.169 98.1888 119.001 102.365C49.4685 106.196 -7.13842 105.133 -81.4283 102.005C-122.32 100.32 -161.522 96.6277 -197.955 91.0296ZM76.4468 -656.228C44.6141 -661.12 10.7642 -664.6 -24.1641 -666.575C-111.982 -672.55 -196.522 -672.481 -275.399 -666.363C-403.696 -658.331 -518.919 -631.936 -608.59 -590.033C-683.581 -555.36 -720.31 -514.556 -717.742 -468.761C-715.028 -422.369 -668.33 -367.474 -616.553 -310.602C-569.123 -258.924 -538.321 -219.638 -516.676 -183.219C-510.166 -172.258 -504.494 -161.615 -499.805 -151.584C-491.302 -132.561 -484.986 -114.317 -478.887 -96.6763C-470.101 -71.2618 -461.8 -47.2592 -448.029 -24.0153C-416.351 30.2603 -325.376 72.5776 -198.427 92.0837C-161.836 97.7061 -122.466 101.412 -81.4127 103.105C-6.99482 106.238 49.734 107.301 119.443 103.462C193.724 99.2771 260.555 92.9029 323.757 83.9647C430.46 69.824 516.98 50.9877 596.042 24.6937C713.942 -12.3823 794.195 -52.5778 834.572 -94.7645C877.238 -139.301 871.506 -194.637 818.403 -250.584C809.548 -260.025 799.461 -269.798 788.434 -279.626C734.465 -327.907 662.54 -372.639 593.493 -414.32C567.257 -430.447 542.222 -445.97 518.014 -460.98C472.762 -489.047 430.012 -515.554 389.549 -539.679C366.785 -553.791 345.348 -565.989 324.046 -576.975C244.636 -617.292 165.963 -642.474 76.4468 -656.228Z" fill="#EDE9F6"/>
<path d="M-196.693 78.0278C-321.768 58.8041 -410.752 18.4631 -440.831 -32.6581C-455.375 -56.8717 -463.582 -81.4768 -472.275 -107.527C-477.528 -123.271 -482.961 -139.555 -490.079 -156.638C-494.388 -166.369 -499.62 -176.742 -505.646 -187.475C-525.654 -223.124 -554.133 -261.408 -597.995 -311.616C-643.691 -364.492 -688.42 -419.876 -689.708 -464.859C-690.899 -509.098 -655.094 -548.505 -583.291 -581.985C-495.371 -623.596 -383.227 -648.414 -258.986 -653.758C-185.031 -658.422 -103.388 -657.328 -16.279 -650.51C16.4689 -648.451 48.323 -645.063 78.4163 -640.438C165.525 -627.05 243.047 -602.949 322.375 -564.594C343.463 -554.19 364.623 -542.676 387.083 -529.396C449.926 -494.087 517.606 -453.394 589.262 -410.309C652.936 -372.939 725.134 -328.156 777.905 -279.335C788.299 -269.772 797.783 -260.249 806.107 -251.016C855.655 -197.002 860.365 -143.391 819.358 -100.061C780.188 -58.5185 703.178 -19.1073 590.474 17.0809C513.788 43.5554 430.618 61.1551 320.783 74.1569C260.241 82.0029 195.897 87.4066 118.301 91.169C47.1004 94.5098 -7.00793 92.1919 -75.5262 89.2602L-79.9236 89.0694C-120.699 87.3866 -159.982 83.6702 -196.693 78.0278ZM78.8878 -641.491C48.6645 -646.136 16.6836 -649.541 -16.1679 -651.602C-103.448 -658.433 -185.3 -659.529 -259.41 -654.855C-384.078 -649.498 -496.633 -624.585 -584.879 -582.819C-657.102 -549.146 -693.121 -509.486 -691.916 -464.947C-690.619 -419.753 -645.801 -364.239 -600.009 -311.256C-556.19 -261.098 -527.745 -222.863 -507.764 -187.27C-501.757 -176.554 -496.527 -166.204 -492.236 -156.501C-485.126 -139.448 -479.7 -123.178 -474.452 -107.442C-465.75 -81.3563 -457.529 -56.7128 -442.944 -32.4348C-412.629 19.089 -323.044 59.7335 -197.165 79.0808C-160.295 84.7475 -120.847 88.4821 -79.9088 90.1705L-75.5156 90.3606C-6.89475 93.296 47.2998 95.615 118.708 92.2672C196.422 88.5012 260.853 83.0867 321.488 75.2282C431.568 62.2011 514.934 44.5516 591.808 18.0161C704.796 -18.2619 782.033 -57.8106 821.373 -99.5212C862.647 -143.137 857.931 -197.074 808.109 -251.397C799.759 -260.651 790.234 -270.207 779.824 -279.794C726.95 -328.714 654.653 -373.556 590.896 -410.973C519.241 -454.059 451.539 -494.763 388.671 -530.076C366.204 -543.369 344.998 -554.915 323.846 -565.35C244.212 -603.854 166.374 -628.045 78.8878 -641.491Z" fill="#EDE9F6"/>
<path d="M-194.578 64.1872C-318.541 45.1264 -406.153 6.51085 -434.959 -41.7621C-450.426 -67.0223 -458.523 -92.2079 -467.094 -118.873C-471.525 -132.667 -476.104 -146.926 -481.936 -161.952C-485.934 -171.487 -490.609 -181.266 -496.213 -191.857C-514.609 -226.587 -540.816 -263.75 -581.18 -312.347C-623.08 -363.493 -663.982 -417.092 -663.928 -460.818C-663.826 -503.702 -628.767 -541.862 -559.723 -574.227C-473.258 -615.546 -363.779 -638.763 -243.11 -641.366C-173.073 -644.637 -96.2446 -642.403 -8.18633 -634.535C22.4545 -632.395 52.3874 -629.091 80.8225 -624.719C166.059 -611.613 242.923 -588.498 322.703 -551.976C343.668 -542.133 364.639 -531.292 386.828 -518.841C443.49 -489.041 505.402 -454.305 587.586 -406.199C671.318 -358.643 729.447 -318.218 770.513 -278.973C780.324 -269.668 789.258 -260.38 797.088 -251.358C843.489 -199.069 847.255 -146.981 807.704 -104.678C770.127 -64.3041 694.077 -24.5953 587.778 10.15C493.162 43.9017 394.989 57.1282 320.039 64.8797C246.294 73.4753 173.831 77.0971 118.943 79.2896C57.5005 81.632 10.1907 79.4193 -44.5809 76.8537C-55.0661 76.3628 -65.8873 75.8566 -77.2037 75.3614C-117.978 73.6523 -157.467 69.8934 -194.578 64.1872ZM81.2941 -625.772C52.7413 -630.163 22.6877 -633.478 -8.03237 -635.625C-96.255 -643.504 -173.273 -645.741 -243.455 -642.468C-364.575 -639.854 -474.508 -616.544 -561.315 -575.062C-630.764 -542.5 -666.037 -504.093 -666.131 -460.917C-666.187 -416.985 -625.195 -363.266 -583.214 -312.011C-542.89 -263.459 -516.713 -226.346 -498.345 -191.669C-492.749 -181.099 -488.084 -171.338 -484.099 -161.83C-478.281 -146.832 -473.699 -132.58 -469.271 -118.799C-460.689 -92.0904 -452.587 -66.8655 -437.067 -41.5316C-408.03 7.13539 -319.815 46.0542 -195.048 65.2386C-157.779 70.9692 -118.125 74.7462 -77.1953 76.4574C-65.884 76.9542 -55.0679 77.4621 -44.5939 77.9488C10.2843 80.5187 57.6774 82.7393 119.306 80.3869C174.279 78.1904 246.843 74.5672 320.697 65.9593C395.816 58.1879 494.235 44.9265 589.132 11.08C695.709 -23.7533 771.99 -63.5987 809.715 -104.141C849.542 -146.719 845.77 -199.135 799.099 -251.72C791.244 -260.762 782.288 -270.081 772.454 -279.413C731.28 -318.745 673.065 -359.249 589.191 -406.875C506.992 -454.998 445.067 -489.743 388.389 -519.546C366.184 -532.011 345.156 -542.878 324.133 -552.749C244.046 -589.408 166.888 -612.611 81.2941 -625.772Z" fill="#EDE9F6"/>
<path d="M-193.408 50.1865C-314.138 31.6158 -402.353 -6.22635 -429.4 -51.0394C-445.829 -77.4231 -453.681 -103.204 -461.996 -130.497C-465.607 -142.353 -469.346 -154.61 -473.942 -167.559C-477.559 -176.747 -481.799 -186.229 -486.898 -196.561C-503.406 -229.947 -527.998 -267.109 -564.298 -313.512C-602.325 -362.963 -639.323 -414.811 -637.87 -457.346C-636.436 -498.929 -602.114 -535.893 -535.859 -567.212C-450.891 -608.305 -344.137 -629.985 -227.139 -629.906C-161.488 -631.831 -89.3996 -628.547 -0.207347 -619.565C28.1989 -617.37 56.0781 -614.181 82.7021 -610.086C166.058 -597.264 242.273 -575.11 322.576 -540.376C343.385 -531.093 364.154 -520.925 386.044 -509.282C447.613 -479.023 512.705 -444.268 585.075 -403.02C663.035 -360.163 722.562 -318.598 762.007 -279.463C771.209 -270.416 779.589 -261.352 786.915 -252.528C830.086 -201.923 832.858 -151.297 794.715 -109.959C758.198 -70.1027 685.277 -31.1244 583.833 2.76194C493.052 36.3005 398.614 48.1391 318.212 55.2944C250.622 62.3186 182.362 65.1648 118.676 67.194C63.8833 68.8286 23.0157 66.6222 -24.299 64.0706C-40.3514 63.2019 -56.9482 62.3099 -75.2138 61.4954C-116.051 59.7731 -155.813 55.9692 -193.408 50.1865ZM83.1735 -611.139C56.4359 -615.252 28.4493 -618.453 -0.0127423 -620.649C-89.349 -629.648 -161.622 -632.937 -227.397 -631.004C-344.882 -631.092 -452.121 -609.315 -537.46 -568.041C-604.106 -536.538 -638.629 -499.336 -640.075 -457.465C-641.531 -414.729 -604.453 -362.76 -566.346 -313.198C-530.086 -266.842 -505.52 -229.725 -489.038 -196.389C-483.943 -186.077 -479.713 -176.611 -476.109 -167.454C-471.519 -154.53 -467.786 -142.278 -464.176 -130.43C-455.851 -103.092 -447.982 -77.2701 -431.502 -50.8059C-417.545 -27.6741 -388.769 -6.80741 -345.986 11.209C-305.287 28.3504 -252.686 42.1918 -193.878 51.2376C-156.126 57.0446 -116.198 60.8667 -75.2106 62.5927C-56.9531 63.406 -40.3705 64.3006 -24.3344 65.1668C23.0817 67.7243 64.0334 69.9364 119.007 68.2934C182.786 66.2614 251.122 63.41 318.816 56.3774C399.421 49.2026 494.132 37.3262 585.2 3.67915C686.907 -30.2903 760.063 -69.4067 796.731 -109.426C835.131 -151.039 832.362 -201.982 788.932 -252.872C781.587 -261.721 773.178 -270.815 763.955 -279.885C724.414 -319.114 664.755 -360.782 586.671 -403.71C514.259 -444.978 449.126 -479.751 387.555 -510.016C365.646 -521.664 344.817 -531.861 323.946 -541.17C243.354 -576.036 166.862 -598.266 83.1735 -611.139Z" fill="#EDE9F6"/>
<path d="M-191.932 36.2337C-311.141 17.8891 -397.675 -18.1842 -423.42 -60.2626C-440.889 -87.8207 -448.059 -112.949 -456.366 -142.048C-459.201 -151.987 -462.131 -162.267 -465.632 -173.121C-468.877 -181.998 -472.694 -191.185 -477.289 -201.223C-492.175 -233.72 -514.41 -269.762 -547.25 -314.648C-581.466 -362.407 -614.635 -412.497 -611.791 -453.86C-609.033 -494.149 -575.44 -529.916 -511.931 -560.167C-428.403 -601.025 -324.287 -621.149 -210.848 -618.362C-132.98 -619.179 -52.8212 -611.377 8.3223 -604.492C34.3822 -602.261 60.0764 -599.212 84.7592 -595.414C166.419 -582.848 242.222 -561.617 323.331 -528.608C344.013 -519.887 364.595 -510.381 386.216 -499.555C451.858 -469.543 516.459 -436.865 583.753 -399.635C657.758 -360.366 716.93 -318.904 754.903 -279.717C763.514 -270.918 771.337 -262.082 778.178 -253.454C818.185 -204.543 819.986 -155.368 783.241 -114.996C738.417 -65.2927 648.645 -27.4315 581.252 -4.41754C493.635 29.0604 402.724 39.5407 317.537 45.8846C253.012 51.7337 189.622 53.58 119.387 55.2369C69.2551 56.3108 32.9649 54.0059 -9.06198 51.3385C-28.6714 50.0927 -48.9559 48.8059 -72.4387 47.7409C-113.481 45.9924 -153.685 42.1193 -191.932 36.2337ZM85.2272 -596.46C60.4471 -600.273 34.6566 -603.339 8.56324 -605.573C-52.6502 -612.466 -132.984 -620.283 -211.027 -619.465C-324.973 -622.261 -429.612 -602.043 -513.538 -560.993C-577.422 -530.562 -611.224 -494.561 -613.993 -453.995C-616.85 -412.438 -583.615 -362.224 -549.321 -314.359C-516.508 -269.518 -494.302 -233.52 -479.436 -201.074C-474.849 -191.049 -471.041 -181.878 -467.803 -173.034C-464.311 -162.2 -461.379 -151.925 -458.546 -141.991C-450.227 -112.842 -443.05 -87.6692 -425.515 -60.0259C-399.545 -17.5594 -312.398 18.8187 -192.402 37.2844C-153.993 43.195 -113.631 47.0827 -72.4313 48.8384C-48.9911 49.9017 -28.7329 51.1893 -9.13971 52.4327C32.9926 55.1066 69.372 57.4155 119.68 56.3372C190.01 54.6804 253.467 52.8276 318.087 46.9712C403.512 40.6084 494.712 30.0926 582.647 -3.50579C650.215 -26.5726 740.249 -64.5629 785.276 -114.468C822.258 -155.108 820.462 -204.585 780.218 -253.781C773.36 -262.439 765.497 -271.302 756.871 -280.126C718.794 -319.419 659.467 -360.989 585.304 -400.341C517.985 -437.591 453.33 -470.295 387.663 -500.318C366.03 -511.148 345.402 -520.678 324.648 -529.431C243.267 -562.55 167.191 -583.847 85.2272 -596.46Z" fill="#EDE9F6"/>
<path d="M-192.197 22.9865C-309.732 4.8902 -394.516 -29.4122 -418.984 -68.7699C-437.581 -97.5174 -444.315 -123.127 -452.111 -152.776C-454.233 -160.844 -456.429 -169.186 -458.96 -177.973C-461.844 -186.521 -465.242 -195.415 -469.345 -205.177C-482.636 -236.768 -502.541 -271.69 -531.985 -315.085C-562.461 -361.138 -591.855 -409.465 -587.619 -449.672C-583.556 -488.668 -550.662 -523.236 -489.864 -552.411C-407.719 -593.012 -306.163 -611.563 -196.167 -606.061C-130.736 -605.386 -64.2488 -598.602 15.4711 -588.619C39.0047 -586.394 62.3391 -583.51 84.8818 -580.039C165.052 -567.696 240.729 -547.345 323.042 -515.997C343.65 -507.83 364.062 -498.983 385.423 -488.961C454.052 -459.938 518.234 -429.325 581.69 -395.35C653.295 -358.789 710.552 -318.579 747.293 -279.047C755.329 -270.493 762.614 -261.891 768.957 -253.461C805.879 -206.232 806.742 -158.521 771.371 -119.11C727.834 -70.063 642.256 -33.0891 578.127 -10.7061C497.86 20.9597 415.325 31.388 316.093 37.3126C254.358 42.0597 193.094 42.9794 128.231 43.9523L119.134 44.0879C72.3843 44.69 39.4852 42.2303 1.3862 39.3788C-20.5519 37.7382 -43.2317 36.039 -70.8164 34.7629C-112.248 32.9709 -153.082 29.0088 -192.197 22.9865ZM85.3504 -581.087C62.7266 -584.571 39.311 -587.467 15.7521 -589.693C-64.053 -599.69 -130.682 -606.486 -196.23 -607.162C-306.783 -612.689 -408.906 -594.044 -491.475 -553.232C-552.637 -523.884 -585.734 -489.093 -589.824 -449.833C-594.079 -409.43 -564.617 -360.983 -534.071 -314.823C-504.656 -271.472 -484.776 -236.59 -471.502 -205.048C-467.402 -195.3 -464.018 -186.423 -461.142 -177.905C-458.616 -169.138 -456.416 -160.796 -454.299 -152.733C-446.486 -123.026 -439.742 -97.371 -421.084 -68.5271C-396.379 -28.787 -310.985 5.81985 -192.667 24.0367C-153.398 30.0828 -112.401 34.0602 -70.8131 35.8617C-43.3046 37.1334 -20.6572 38.8276 1.25047 40.4684C39.455 43.3264 72.4585 45.795 119.391 45.192L128.503 45.0514C193.435 44.0795 254.765 43.1578 316.578 38.4009C416.133 32.4632 498.968 21.994 579.544 -9.80087C643.826 -32.2353 729.68 -69.3409 773.406 -118.587C808.997 -158.256 808.149 -206.264 771.008 -253.769C764.649 -262.221 757.34 -270.859 749.275 -279.433C712.428 -319.088 655.004 -359.419 583.22 -396.075C519.718 -430.071 455.463 -460.717 386.806 -489.755C365.436 -499.775 344.972 -508.643 324.301 -516.843C241.714 -548.286 165.8 -568.701 85.3504 -581.087Z" fill="#EDE9F6"/>
<path d="M-192.26 8.79521C-307.541 -8.9625 -390.16 -41.4374 -413.251 -78.081C-432.925 -107.974 -439.03 -133.961 -446.103 -164.051C-447.578 -170.318 -449.104 -176.809 -450.804 -183.6C-453.318 -191.826 -456.278 -200.421 -459.869 -209.895C-471.501 -240.544 -489.004 -274.337 -514.964 -316.241C-541.594 -360.561 -567.127 -407.105 -561.451 -446.176C-556.046 -483.875 -523.898 -517.242 -465.906 -545.347C-385.275 -585.711 -286.466 -602.724 -180.145 -594.551C-116.758 -592.484 -53.1178 -584.209 23.5008 -573.611C44.1784 -571.453 64.7744 -568.794 84.8034 -565.708C163.492 -553.587 239.163 -534.094 322.94 -504.354C343.422 -496.748 363.619 -488.573 384.653 -479.37C455.438 -451.779 519.053 -423.247 579.159 -392.139C647.489 -358.588 704.152 -318.597 738.754 -279.518C746.192 -271.219 752.92 -262.841 758.746 -254.62C792.466 -209.109 792.33 -162.862 758.377 -124.4C716.172 -75.996 634.915 -39.8899 574.18 -18.1246C496.367 13.6396 414.023 23.1582 314.318 27.6837C259.527 31.1505 205.149 31.4552 147.575 31.7753C138.115 31.8293 128.585 31.8823 118.953 31.951C74.831 32.1574 43.1609 29.3899 9.64039 26.4584C-13.7234 24.4167 -37.8785 22.3039 -68.7177 20.8566C-110.628 19.0242 -152.19 14.9675 -192.26 8.79521ZM85.2746 -566.763C65.1808 -569.858 44.5068 -572.518 23.8302 -574.677C-52.8441 -585.286 -116.599 -593.576 -180.103 -595.645C-287.018 -603.863 -386.442 -586.757 -467.52 -546.166C-525.865 -517.891 -558.209 -484.308 -563.655 -446.353C-569.353 -407.098 -543.767 -360.441 -517.069 -316.009C-491.133 -274.147 -473.645 -240.391 -462.032 -209.785C-458.452 -200.328 -455.491 -191.745 -452.991 -183.545C-451.29 -176.775 -449.77 -170.288 -448.296 -164.021C-441.21 -133.871 -435.085 -107.833 -415.35 -77.8337C-392.013 -40.8112 -308.789 -8.03267 -192.729 9.84493C-152.505 16.041 -110.778 20.1158 -68.7188 21.9542C-37.978 23.3985 -13.8633 25.505 9.45081 27.5415C43.0798 30.4825 74.8503 33.2581 119.177 33.0495C128.816 32.9843 138.338 32.9277 147.798 32.876C205.438 32.5539 259.888 32.2531 314.75 28.7805C414.801 24.2381 497.468 14.6749 575.609 -17.2322C636.496 -39.0466 718.026 -75.2775 760.411 -123.881C794.584 -162.595 794.731 -209.127 760.815 -254.905C754.978 -263.153 748.221 -271.559 740.747 -279.885C706.032 -319.1 649.182 -359.227 580.647 -392.879C520.481 -424.019 456.786 -452.585 385.967 -480.188C364.93 -489.392 344.687 -497.59 324.122 -505.224C240.107 -535.051 164.215 -554.603 85.2746 -566.763Z" fill="#EDE9F6"/>
<path d="M-192.305 -5.39302C-306.743 -23.0307 -385.044 -52.9055 -407.123 -87.3572C-427.879 -118.314 -432.963 -143.291 -439.398 -174.916C-440.331 -179.518 -441.3 -184.261 -442.342 -189.189C-444.492 -197.115 -447.034 -205.416 -450.106 -214.574C-460.099 -244.258 -475.242 -276.921 -497.777 -317.37C-519.637 -358.071 -542.371 -404.686 -535.246 -442.647C-528.51 -479.049 -497.089 -511.212 -441.863 -538.241C-362.701 -578.344 -266.551 -593.796 -163.79 -582.938C-106.551 -579.659 -47.448 -570.627 15.1192 -561.059L32.0855 -558.468C49.4856 -556.461 66.9012 -554.12 83.9262 -551.496C161.509 -539.538 237.71 -520.803 323.73 -492.527C344.12 -485.482 364.134 -477.97 384.844 -469.576C458.492 -443.306 519.798 -417.614 577.824 -388.694C644.221 -357.45 698.83 -318.76 731.622 -279.743C738.478 -271.695 744.668 -263.55 749.985 -255.52C780.562 -211.729 779.467 -166.954 746.905 -129.439C706.021 -81.6822 629.014 -46.4691 571.609 -25.3432C487.611 10.0925 398.146 15.6038 313.715 18.2155C264.497 20.6314 215.655 20.3746 163.959 20.1058C149.422 20.028 134.703 19.9511 119.741 19.9311C77.5998 19.7816 48.1695 16.797 17.01 13.6401C-7.21901 11.1817 -32.2747 8.64423 -65.831 7.04144C-107.87 5.17997 -151.605 0.879915 -192.305 -5.39302ZM84.3949 -552.545C67.3172 -555.177 49.8459 -557.529 32.464 -559.529L15.5838 -562.109C-47.0948 -571.689 -106.293 -580.741 -163.639 -584.021C-267.03 -594.952 -363.838 -579.406 -443.493 -539.053C-499.044 -511.866 -530.657 -479.499 -537.438 -442.85C-544.596 -404.71 -521.818 -357.979 -499.898 -317.17C-477.386 -276.756 -462.257 -244.132 -452.287 -214.492C-449.206 -205.345 -446.671 -197.057 -444.534 -189.159C-443.489 -184.248 -442.524 -179.505 -441.59 -174.905C-435.137 -143.213 -430.046 -118.177 -409.215 -87.1069C-386.883 -52.2707 -307.998 -22.1029 -192.774 -4.34403C-151.92 1.95264 -108.019 6.26862 -65.8316 8.13839C-32.406 9.73312 -7.40505 12.267 16.7753 14.7179C48.0412 17.8888 77.5728 20.8793 119.934 21.0312C134.904 21.0525 149.611 21.1275 164.135 21.2057C215.903 21.4762 264.803 21.732 314.074 19.3123C398.826 16.6896 488.662 11.1533 573.071 -24.4558C630.617 -45.6349 707.883 -80.9724 748.939 -128.93C781.711 -166.684 782.817 -211.736 752.072 -255.788C746.724 -263.84 740.528 -272.017 733.638 -280.087C700.725 -319.258 645.905 -358.099 579.289 -389.452C521.177 -418.404 459.78 -444.142 386.083 -470.429C365.364 -478.815 345.317 -486.346 324.839 -493.419C238.596 -521.768 162.209 -540.552 84.3949 -552.545Z" fill="#EDE9F6"/>
<path d="M-194.052 -18.8771C-305.297 -36.0307 -380.948 -64.0986 -401.597 -95.8817C-423.315 -127.789 -427.268 -151.62 -432.734 -184.606C-433.251 -187.709 -433.777 -190.889 -434.334 -194.165C-436.108 -201.814 -438.208 -209.825 -440.765 -218.676C-449.06 -247.381 -461.791 -278.955 -480.834 -318.052C-503.429 -366.521 -516.89 -405.623 -509.119 -438.851C-500.993 -474.027 -470.299 -505.044 -417.874 -531.045C-340.21 -570.98 -246.786 -584.946 -147.699 -571.436C-124.16 -569.449 -98.7581 -566.298 -67.6426 -561.501C-45.1062 -558.026 -22.3916 -554.136 1.65942 -550.014C14.3056 -547.851 27.136 -545.655 40.1939 -543.474C53.5633 -541.778 67.0025 -539.89 80.199 -537.855C158.075 -525.847 233.158 -508.275 323.672 -480.876C343.704 -474.478 364.046 -467.435 384.124 -459.948C459.276 -435.557 520 -411.868 575.278 -385.379C639.834 -356.286 692.283 -318.865 723.005 -279.991C729.285 -272.165 734.895 -264.235 739.681 -256.426C767.053 -214.313 764.939 -170.943 733.746 -134.287C694.153 -87.0668 621.428 -52.6693 567.397 -32.1282C485.75 3.55206 399.837 7.85156 311.641 9.35104C267.107 10.9165 222.914 10.1808 176.113 9.40354C157.701 9.09953 138.647 8.78113 119.277 8.60758C78.7163 8.14419 51.1632 4.93818 22.0026 1.54476C-2.6763 -1.32692 -28.1807 -4.29688 -64.0004 -6.01999C-106.99 -7.94152 -151.953 -12.3857 -194.052 -18.8771ZM-67.1735 -562.551C-98.3903 -567.364 -123.887 -570.526 -147.418 -572.51C-247.187 -586.111 -341.312 -572.065 -419.502 -531.855C-472.239 -505.699 -503.13 -474.483 -511.302 -439.079C-519.106 -405.686 -505.625 -366.484 -482.974 -317.89C-463.943 -278.824 -451.222 -247.284 -442.944 -218.62C-440.391 -209.78 -438.288 -201.775 -436.523 -194.154C-435.973 -190.901 -435.441 -187.715 -434.928 -184.613C-429.446 -151.547 -425.481 -127.656 -403.677 -95.6219C-382.782 -63.4598 -306.543 -35.1005 -194.521 -17.827C-152.269 -11.3119 -107.139 -6.85183 -64.0051 -4.92493C-28.3432 -3.2068 -2.91168 -0.248073 21.6893 2.61401C50.9733 6.02163 78.6326 9.24159 119.435 9.70598C138.799 9.88342 157.837 10.1993 176.24 10.5043C223.1 11.2836 267.355 12.019 311.959 10.4499C400.498 8.94768 486.803 4.62386 568.885 -31.248C623.041 -51.8449 696.021 -86.3676 735.783 -133.782C767.169 -170.667 769.309 -214.308 741.78 -256.668C736.978 -264.501 731.345 -272.46 725.036 -280.317C694.182 -319.36 641.5 -356.946 576.684 -386.154C521.321 -412.686 460.488 -436.422 385.268 -460.834C365.213 -468.314 344.826 -475.372 324.715 -481.797C233.998 -509.253 158.741 -526.864 80.6671 -538.903C67.4301 -540.944 53.9585 -542.837 40.6296 -544.527C27.6647 -546.693 14.8334 -548.887 2.19734 -551.053C-21.8709 -555.176 -44.6007 -559.07 -67.1735 -562.551Z" fill="#EDE9F6"/>
<path d="M-132.709 -559.491C-121.585 -558.219 -110.161 -556.669 -97.6791 -554.744C-68.7718 -550.284 -39.1832 -544.558 -7.85617 -538.498C10.0511 -535.035 28.5699 -531.449 47.6178 -527.982C55.618 -526.859 63.6354 -525.677 71.5487 -524.457C149.576 -512.419 227.322 -495.215 323.616 -468.682C343.644 -462.825 363.814 -456.469 383.547 -449.787C461.306 -427.086 519.839 -406.058 573.39 -381.569C636.45 -354.548 686.923 -318.454 715.551 -279.922C721.278 -272.351 726.35 -264.659 730.645 -257.061C755.296 -216.149 752.346 -175.396 722.088 -139.199C683.825 -92.6615 615.329 -59.2302 564.609 -39.3756C485.115 -3.57329 402.556 -0.488527 310.629 -0.280707C269.944 0.530247 229.566 -0.663498 186.832 -1.92144C165.089 -2.56248 142.614 -3.22227 119.495 -3.63144C80.0977 -4.41318 54.0788 -7.86729 26.5433 -11.5216C1.68159 -14.8237 -24.0265 -18.2371 -61.8742 -20.0954C-106.211 -22.1171 -152.828 -26.7599 -196.679 -33.5251C-304.411 -50.1459 -377.27 -76.356 -396.587 -105.435C-419.263 -138.006 -422.108 -160.437 -426.413 -194.391L-427.116 -199.931C-428.539 -207.303 -430.227 -215.009 -432.284 -223.51C-439.045 -251.47 -449.154 -280.987 -465.057 -319.224C-483.301 -365.528 -493.584 -402.982 -484.468 -435.245C-475.029 -469.094 -445.059 -498.861 -395.397 -523.724C-321.258 -562.24 -233.006 -575.02 -140.149 -560.695C-137.671 -560.312 -135.182 -559.914 -132.709 -559.491ZM-97.2102 -555.794C-109.748 -557.728 -121.227 -559.282 -132.293 -560.547C-134.681 -560.949 -137.182 -561.357 -139.681 -561.743C-233.365 -576.196 -322.355 -563.332 -397.036 -524.532C-446.989 -499.521 -477.146 -469.568 -486.65 -435.497C-495.808 -403.082 -485.505 -365.527 -467.215 -319.103C-451.321 -280.894 -441.225 -251.405 -434.466 -223.48C-432.415 -214.987 -430.726 -207.291 -429.31 -199.943L-428.611 -194.421C-424.295 -160.376 -421.443 -137.883 -398.666 -105.171C-379.102 -75.7141 -305.649 -49.2166 -197.147 -32.4772C-153.142 -25.6882 -106.368 -21.0285 -61.8734 -19.0016C-24.221 -17.1518 1.39285 -13.7505 26.1614 -10.4628C53.8356 -6.78951 79.9649 -3.32078 119.616 -2.53379C142.709 -2.12611 165.17 -1.4637 186.908 -0.823289C229.703 0.43662 270.134 1.62656 310.88 0.815315C399.792 0.613042 486.252 -2.54321 566.114 -38.5108C616.956 -58.4143 685.707 -91.9704 724.143 -138.701C754.578 -175.122 757.547 -216.128 732.757 -257.274C728.451 -264.895 723.354 -272.62 717.614 -280.219C688.837 -318.941 638.108 -355.217 574.761 -382.361C521.11 -406.897 462.436 -427.979 384.601 -450.693C364.886 -457.378 344.667 -463.749 324.572 -469.621C228.091 -496.209 150.21 -513.441 72.0167 -525.505C64.0872 -526.728 56.0444 -527.911 48.1141 -529.026C29.1704 -532.474 10.6668 -536.056 -7.22728 -539.519C-38.5969 -545.59 -68.2239 -551.317 -97.2102 -555.794Z" fill="#EDE9F6"/>
<path d="M-199.677 -47.2569C-303.087 -63.2166 -372.676 -87.5493 -390.597 -114.012C-414.016 -147.04 -415.727 -167.928 -418.558 -202.523L-418.751 -204.892C-419.811 -212.029 -421.074 -219.445 -422.613 -227.582C-427.684 -254.339 -435.495 -282.783 -447.927 -319.804C-459.913 -358.04 -469.463 -398.009 -458.282 -431.267C-447.457 -463.873 -418.202 -492.464 -371.324 -516.261C-302.849 -552.319 -222.308 -564.532 -138.387 -551.58C-131.072 -550.451 -123.639 -549.118 -116.298 -547.611C-114.65 -547.366 -113.127 -547.133 -111.584 -546.895C-79.7915 -541.988 -46.9893 -534.777 -12.2699 -527.14C9.67924 -522.313 32.3683 -517.322 56.2702 -512.585C157.068 -496.956 248.403 -475.506 324.466 -456.594C344.504 -451.285 364.481 -445.609 383.804 -439.717C437.08 -425.858 506.575 -406.317 572.074 -377.816C632.776 -353.109 682.451 -317.378 708.406 -279.774C713.551 -272.445 718.073 -264.979 721.838 -257.585C743.336 -218.438 739.416 -179.083 710.536 -143.759C673.549 -97.7783 609.283 -65.2184 561.884 -46.0024C484.583 -10.0076 402.011 -7.98985 309.842 -9.08543C272.505 -8.90122 235.449 -10.4796 196.218 -12.1498C171.74 -13.1921 146.433 -14.2682 120.109 -14.9459C81.6717 -16.0181 57.0054 -19.7211 30.8908 -23.6404C6.09499 -27.3635 -19.5602 -31.2167 -59.162 -33.1904C-104.593 -35.2888 -154.492 -40.2833 -199.677 -47.2569ZM-137.919 -552.628C-222.674 -565.708 -303.956 -553.407 -372.972 -517.058C-420.124 -493.132 -449.564 -464.358 -460.457 -431.542C-471.678 -398.136 -462.114 -358.064 -450.103 -319.729C-437.67 -282.727 -429.871 -254.307 -424.805 -227.578C-423.265 -219.452 -422.003 -212.043 -420.953 -204.933L-420.76 -202.583C-417.918 -167.877 -416.204 -146.929 -392.665 -113.742C-374.495 -86.9054 -304.32 -62.2867 -200.145 -46.2088C-154.81 -39.2121 -104.746 -34.1994 -59.1703 -32.0955C-19.8002 -30.1359 5.74148 -26.3001 30.4401 -22.5921C56.6914 -18.6493 81.48 -14.9298 120.203 -13.8475C146.49 -13.1731 171.771 -12.0985 196.231 -11.0541C235.513 -9.38322 272.616 -7.80246 310.03 -7.98447C402.617 -6.88474 485.617 -8.92091 563.422 -45.1422C610.947 -64.4088 675.446 -97.0944 712.577 -143.27C741.637 -178.803 745.573 -218.399 723.973 -257.772C720.182 -265.187 715.646 -272.689 710.468 -280.05C684.389 -317.861 634.422 -353.792 573.397 -378.628C507.736 -407.203 438.076 -426.79 384.741 -440.664C365.457 -446.545 345.442 -452.234 325.326 -457.56C249.151 -476.504 157.7 -497.976 56.8312 -513.619C33.0538 -518.334 10.3829 -523.318 -11.5419 -528.14C-48.0114 -536.161 -82.3624 -543.713 -115.746 -548.643C-123.037 -550.138 -130.535 -551.488 -137.919 -552.628Z" fill="#EDE9F6"/>
<path d="M-204.842 -62.3544C-262.62 -71.2745 -362.919 -91.1231 -385.533 -123.833C-409.521 -157.03 -410.163 -176.186 -411.33 -210.964C-412.024 -218.035 -412.86 -225.155 -413.887 -232.856C-418.222 -265.244 -425.719 -297.274 -431.753 -321.563C-439.977 -357.905 -445.829 -396.014 -433.072 -428.416C-420.851 -459.783 -392.315 -487.194 -348.244 -509.891C-284.901 -543.709 -211.28 -555.382 -135.328 -543.656C-123.945 -541.899 -112.366 -539.602 -100.913 -536.818C-73.2014 -531.687 -44.7593 -524.549 -14.6446 -516.992C10.2572 -510.741 36.009 -504.281 63.8799 -498.277C147.514 -483.916 228.443 -466.839 324.251 -445.61C344.366 -440.846 364.138 -435.846 382.98 -430.757C440.506 -417.611 507.593 -400.734 569.657 -375.183C629.04 -352.334 676.585 -317.929 700.141 -280.787C704.714 -273.704 708.689 -266.464 711.943 -259.266C730.268 -221.928 725.406 -183.983 697.875 -149.519C662.191 -104.086 602.172 -72.4247 558.099 -53.8628C482.783 -17.6329 403.655 -16.6579 308.039 -19.1456C273.586 -19.5116 239.422 -21.4358 203.24 -23.4734C176.486 -24.9825 148.823 -26.5402 119.734 -27.5264C90.2838 -28.5779 69.8439 -31.2676 53.7342 -33.7547C46.952 -34.8018 40.539 -35.8811 33.7364 -37.0279C27.0148 -38.1622 20.0403 -39.3403 12.7644 -40.4636C-3.09035 -42.9113 -25.3999 -45.9283 -57.4308 -47.5449C-105.108 -49.7787 -157.46 -55.0394 -204.842 -62.3544ZM-134.86 -544.706C-211.653 -556.562 -286.006 -544.799 -349.902 -510.682C-393.601 -488.179 -423.112 -459.836 -435.236 -428.724C-448.048 -396.178 -442.183 -357.972 -433.937 -321.533C-427.9 -297.253 -420.413 -265.25 -416.085 -232.884C-415.054 -225.192 -414.215 -218.077 -413.535 -211.131C-412.364 -176.149 -411.718 -156.925 -387.603 -123.556C-364.637 -90.336 -263.533 -70.2954 -205.31 -61.3066C-157.778 -53.9685 -105.264 -48.6925 -57.4392 -46.4503C-25.6146 -44.8463 -3.45984 -41.8508 12.2978 -39.4181C19.5494 -38.2985 26.4905 -37.1232 33.2162 -35.9883C39.7213 -34.8923 46.4551 -33.7561 53.2656 -32.7047C69.5048 -30.1976 90.0933 -27.4921 119.785 -26.4299C148.825 -25.4489 176.47 -23.8915 203.207 -22.3826C239.421 -20.34 273.644 -18.4116 308.16 -18.0503C404.252 -15.5447 483.813 -16.5374 559.663 -53.0155C603.853 -71.6269 664.099 -103.42 699.935 -149.037C727.623 -183.699 732.522 -221.872 714.082 -259.426C710.825 -266.646 706.828 -273.915 702.231 -281.031C678.53 -318.408 630.674 -353.031 570.922 -376.011C508.669 -401.652 441.401 -418.569 383.817 -431.731C364.996 -436.819 345.189 -441.817 325.013 -446.6C229.115 -467.85 148.13 -484.937 64.5054 -499.3C36.7832 -505.27 11.0678 -511.723 -13.8077 -517.965C-43.9851 -525.538 -72.4879 -532.695 -100.214 -537.822C-111.667 -540.604 -123.359 -542.931 -134.86 -544.706Z" fill="#EDE9F6"/>
<path d="M-211.059 -76.6347C-304.909 -91.1285 -365.057 -111.074 -380.427 -132.796C-404.817 -165.897 -404.491 -183.857 -403.902 -216.454C-404.21 -223.349 -404.624 -230.183 -405.159 -237.366C-407.341 -266.798 -411.466 -295.737 -415.6 -322.627C-419.926 -355.421 -422.384 -393.237 -407.888 -424.979C-394.437 -454.72 -365.813 -481.698 -325.107 -503.004C-265.512 -535.261 -199.856 -546.139 -129.951 -535.343C-115.154 -533.058 -100.099 -529.752 -85.1977 -525.519C-62.2932 -520.315 -38.8538 -513.584 -14.0372 -506.457C12.9514 -498.707 40.8615 -490.694 72.012 -483.425C121.045 -474.072 169.379 -464.552 220.554 -454.47C254.459 -447.787 289.517 -440.883 324.855 -434.017C345.192 -429.79 364.776 -425.468 383.063 -421.178C444.471 -409.052 509.356 -394.698 568.34 -371.87C626.566 -350.799 672.041 -317.689 693.131 -281.033C697.155 -274.181 700.582 -267.164 703.314 -260.17C718.525 -224.638 712.71 -188.06 686.494 -154.402C652.041 -109.451 596.217 -78.6695 555.44 -60.7636C481.963 -24.2572 406.149 -24.2541 307.074 -28.2297C275.149 -29.0685 243.474 -31.3108 209.948 -33.6842C181.239 -35.7148 151.549 -37.8171 119.971 -39.1434C100.449 -39.9943 83.1552 -41.6603 65.5725 -44.3757C55.4408 -45.9404 46.3413 -47.6549 36.7152 -49.47C27.0901 -51.2873 17.1208 -53.1675 6.02127 -54.8817C-13.4322 -57.886 -32.9092 -59.8192 -55.2642 -60.9577C-105.191 -63.3401 -161.972 -69.0538 -211.059 -76.6347ZM-129.482 -536.394C-200.25 -547.323 -266.627 -536.351 -326.774 -503.788C-367.712 -482.371 -396.504 -455.228 -410.037 -425.316C-424.601 -393.439 -422.133 -355.53 -417.799 -322.645C-413.664 -295.767 -409.538 -266.84 -407.356 -237.428C-406.823 -230.25 -406.413 -223.419 -406.1 -216.552C-406.697 -183.833 -407.024 -165.802 -382.489 -132.511C-366.864 -110.418 -306.142 -90.1983 -211.527 -75.5862C-162.298 -67.9835 -105.347 -62.2532 -55.2754 -59.8654C-33.0834 -58.7302 -13.7532 -56.8173 5.55447 -53.8355C16.577 -52.1332 26.51 -50.2586 36.1117 -48.4473C45.7692 -46.6249 54.9032 -44.9003 65.1037 -43.325C82.8524 -40.584 100.288 -38.908 119.985 -38.0495C151.502 -36.723 181.16 -34.6256 209.831 -32.5962C243.419 -30.2179 275.137 -27.9739 307.132 -27.1289C406.732 -23.1352 482.982 -23.1458 557.024 -59.9295C597.912 -77.8885 653.964 -108.792 688.547 -153.928C714.917 -187.777 720.766 -224.557 705.468 -260.294C702.725 -267.311 699.283 -274.362 695.256 -281.246C674 -318.159 628.192 -351.505 569.56 -372.733C510.355 -395.636 445.278 -410.036 383.775 -422.184C365.528 -426.466 345.907 -430.793 325.512 -435.034C290.144 -441.902 255.081 -448.812 221.198 -455.487C170.011 -465.57 121.674 -475.096 72.7035 -484.431C41.7302 -491.661 13.8708 -499.662 -13.0773 -507.396C-37.9475 -514.538 -61.4367 -521.284 -84.3452 -526.488C-99.2981 -530.742 -114.515 -534.082 -129.482 -536.394Z" fill="#EDE9F6"/>
</svg>
